<?xml version="1.0" encoding="utf-8"?>
<!-- Generator: Adobe Illustrator 26.0.2, SVG Export Plug-In . SVG Version: 6.00 Build 0)  -->
<svg version="1.1" id="Layer_1" xmlns="http://www.w3.org/2000/svg" xmlns:xlink="http://www.w3.org/1999/xlink" x="0px" y="0px"
	 viewBox="0 0 2500 1465" style="enable-background:new 0 0 2500 1465;" xml:space="preserve">
<style type="text/css">
	.st0{fill:#FFFFFF;}
	.st1{fill-rule:evenodd;clip-rule:evenodd;fill:#FFFFFF;}
</style>
<path class="st0" d="M712.6,532.1c0,30.1,3.3,54.6,9,72.5c6.5,17.9,14.7,37.5,26.1,58.7c4.1,6.5,5.7,13,5.7,18.7
	c0,8.1-4.9,16.3-15.5,24.4l-51.3,34.2c-7.3,4.9-14.7,7.3-21.2,7.3c-8.1,0-16.3-4.1-24.4-11.4c-11.4-12.2-21.2-25.3-29.3-38.3
	c-8.1-13.9-16.3-29.3-25.3-48.1c-63.6,75-143.4,112.4-239.5,112.4c-68.4,0-123-19.6-163-58.7c-39.9-39.1-60.3-91.3-60.3-156.4
	c0-69.3,24.4-125.5,74.1-167.8s115.7-63.6,199.6-63.6c27.7,0,56.2,2.4,86.4,6.5c30.1,4.1,61.1,10.6,93.7,17.9v-59.5
	c0-61.9-13-105.1-38.3-130.4c-26.1-25.3-70.1-37.5-132.8-37.5c-28.5,0-57.9,3.3-88,10.6c-30.1,7.3-59.5,16.3-88,27.7
	c-13,5.7-22.8,9-28.5,10.6s-9.8,2.4-13,2.4c-11.4,0-17.1-8.1-17.1-25.3V99.4c0-13,1.6-22.8,5.7-28.5s11.4-11.4,22.8-17.1
	c28.5-14.7,62.7-26.9,102.7-36.7C342.7,6.5,385.1,1.6,429.9,1.6c97,0,167.8,22,213.5,66c44.8,44,67.6,110.8,67.6,200.4v264
	L712.6,532.1z M381.8,655.9c26.9,0,54.6-4.9,83.9-14.7c29.3-9.8,55.4-27.7,77.4-52.1c13-15.5,22.8-32.6,27.7-52.1
	c4.9-19.6,8.1-43.2,8.1-70.9v-34.2c-23.6-5.7-48.9-10.6-75-13.9c-26.1-3.3-51.3-4.9-76.6-4.9c-54.6,0-94.5,10.6-121.4,32.6
	c-26.9,22-39.9,53-39.9,93.7c0,38.3,9.8,66.8,30.1,86.4C315.8,646.1,344.4,655.9,381.8,655.9L381.8,655.9z M1036.1,743.9
	c-14.7,0-24.4-2.4-31-8.1c-6.5-4.9-12.2-16.3-17.1-31.8L796.6,74.1c-4.9-16.3-7.3-26.9-7.3-32.6c0-13,6.5-20.4,19.6-20.4h79.8
	c15.5,0,26.1,2.4,31.8,8.1c6.5,4.9,11.4,16.3,16.3,31.8l136.9,539.4l127.1-539.4c4.1-16.3,9-26.9,15.5-31.8
	c6.5-4.9,17.9-8.1,32.6-8.1h65.2c15.5,0,26.1,2.4,32.6,8.1c6.5,4.9,12.2,16.3,15.5,31.8L1490.8,607l141-545.9
	c4.9-16.3,10.6-26.9,16.3-31.8c6.5-4.9,17.1-8.1,31.8-8.1h75.8c13,0,20.4,6.5,20.4,20.4c0,4.1-0.8,8.1-1.6,13
	c-0.8,4.9-2.4,11.4-5.7,20.4l-196.4,629.8c-4.9,16.3-10.6,26.9-17.1,31.8c-6.5,4.9-17.1,8.1-31,8.1h-70.1c-15.5,0-26.1-2.4-32.6-8.1
	c-6.5-5.7-12.2-16.3-15.5-32.6l-126.3-525.5l-125.5,524.7c-4.1,16.3-9,26.9-15.5,32.6c-6.5,5.7-17.9,8.1-32.6,8.1H1036.1z
	 M2083.1,765.9c-42.4,0-84.7-4.9-125.5-14.7c-40.7-9.8-72.5-20.4-93.7-32.6c-13-7.3-22-15.5-25.3-22.8c-3.3-7.3-4.9-15.5-4.9-22.8
	v-41.6c0-17.1,6.5-25.3,18.7-25.3c4.9,0,9.8,0.8,14.7,2.4s12.2,4.9,20.4,8.1c27.7,12.2,57.9,22,89.6,28.5c32.6,6.5,64.4,9.8,97,9.8
	c51.3,0,91.3-9,119-26.9c27.7-17.9,42.4-44,42.4-77.4c0-22.8-7.3-41.6-22-57c-14.7-15.5-42.4-29.3-82.3-42.4l-118.1-36.7
	c-59.5-18.7-103.5-46.4-130.4-83.1c-26.9-35.9-40.7-75.8-40.7-118.1c0-34.2,7.3-64.4,22-90.4c14.7-26.1,34.2-48.9,58.7-66.8
	c24.4-18.7,52.1-32.6,84.7-42.4S2074.2,0,2110,0c17.9,0,36.7,0.8,54.6,3.3c18.7,2.4,35.9,5.7,53,9c16.3,4.1,31.8,8.1,46.4,13
	s26.1,9.8,34.2,14.7c11.4,6.5,19.6,13,24.4,20.4c4.9,6.5,7.3,15.5,7.3,26.9v38.3c0,17.1-6.5,26.1-18.7,26.1c-6.5,0-17.1-3.3-31-9.8
	c-46.4-21.2-98.6-31.8-156.4-31.8c-46.4,0-83.1,7.3-108.4,22.8s-38.3,39.1-38.3,72.5c0,22.8,8.1,42.4,24.4,57.9s46.4,31,89.6,44.8
	l115.7,36.7c58.7,18.7,101,44.8,126.3,78.2c25.3,33.4,37.5,71.7,37.5,114.1c0,35-7.3,66.8-21.2,94.5c-14.7,27.7-34.2,52.1-59.5,71.7
	c-25.3,20.4-55.4,35-90.4,45.6C2163,760.2,2124.7,765.9,2083.1,765.9L2083.1,765.9z"/>
<g>
	<path class="st1" d="M2237.1,1161.9c-268.1,198-657.5,303.1-992.4,303.1c-469.3,0-892.2-173.6-1211.6-462
		c-25.3-22.8-2.4-53.8,27.7-35.9C406.3,1167.6,832.4,1289,1273.2,1289c297.4,0,624.1-61.9,924.8-189
		C2242.8,1079.6,2281.1,1129.3,2237.1,1161.9z"/>
	<path class="st1" d="M2348.8,1034.8c-34.2-44-226.5-21.2-313.7-10.6c-26.1,3.3-30.1-19.6-6.5-36.7c153.2-107.6,405-76.6,434.3-40.7
		c29.3,36.7-8.1,288.4-151.6,409c-22,18.7-43.2,9-33.4-15.5C2310.5,1259.7,2383,1078,2348.8,1034.8z"/>
</g>
</svg>
