<?xml version="1.0" encoding="utf-8"?>
<!-- Generator: Adobe Illustrator 26.0.2, SVG Export Plug-In . SVG Version: 6.00 Build 0)  -->
<svg version="1.1"
	 id="svg3476" inkscape:version="0.91 r13725" sodipodi:docname="CSS3.svg" xmlns:cc="http://creativecommons.org/ns#" xmlns:dc="http://purl.org/dc/elements/1.1/" xmlns:inkscape="http://www.inkscape.org/namespaces/inkscape" xmlns:rdf="http://www.w3.org/1999/02/22-rdf-syntax-ns#" xmlns:sodipodi="http://sodipodi.sourceforge.net/DTD/sodipodi-0.dtd" xmlns:svg="http://www.w3.org/2000/svg"
	 xmlns="http://www.w3.org/2000/svg" xmlns:xlink="http://www.w3.org/1999/xlink" x="0px" y="0px" viewBox="0 0 290.2 409.6"
	 style="enable-background:new 0 0 290.2 409.6;" xml:space="preserve">
<style type="text/css">
	.st0{fill:#FFFFFF;}
</style>
<sodipodi:namedview  bordercolor="#666666" borderopacity="1.0" fit-margin-bottom="0" fit-margin-left="0" fit-margin-right="0" fit-margin-top="0" id="base" inkscape:current-layer="layer1" inkscape:cx="181.367" inkscape:cy="256" inkscape:document-units="px" inkscape:pageopacity="0.0" inkscape:pageshadow="2" inkscape:window-height="704" inkscape:window-maximized="1" inkscape:window-width="1366" inkscape:window-x="0" inkscape:window-y="27" inkscape:zoom="0.35" pagecolor="#ffffff" showgrid="false">
	</sodipodi:namedview>
<g id="layer1" transform="translate(-193.633,-276.3622)" inkscape:groupmode="layer" inkscape:label="Calque 1">
	<g id="g3013" transform="translate(119,276.3622)">
		<path id="path2999" inkscape:connector-curvature="0" class="st0" d="M142.9,0h44v18.4h-25.6v18.4h25.6v18.4h-44V0z"/>
		<path id="path3001" inkscape:connector-curvature="0" class="st0" d="M195.7,0h44v16h-25.6v3.2h25.6V56h-44V39.2h25.6V36h-25.6V0z
			"/>
		<path id="path3003" inkscape:connector-curvature="0" class="st0" d="M248.5,0h44v16h-25.6v3.2h25.6V56h-44V39.2h25.6V36h-25.6V0z
			"/>
		<path class="st0" d="M74.6,80.5L101,376.7l118.5,32.9l118.8-32.9l26.4-296.2H74.6z M304,214.6l-0.9,9.8l-8.5,95.6l-0.5,6.1
			l-74.3,20.6v0l-0.2,0l-74.4-20.7l-5.1-57h16.8h19.7l2.6,29l40.5,10.9l0,0v0l40.5-10.9l4.2-47.1h-44.6h-0.1h-81.2l-3.3-36.3h84.4
			h0.1h47.8l3.3-37.2h-51.1h-0.1h-87.7l-3.3-36.3h91h0.1h90.9L304,214.6z"/>
	</g>
</g>
</svg>
