<?xml version="1.0" encoding="utf-8"?>
<!-- Generator: Adobe Illustrator 26.0.2, SVG Export Plug-In . SVG Version: 6.00 Build 0)  -->
<svg version="1.1" id="Layer_1" xmlns="http://www.w3.org/2000/svg" xmlns:xlink="http://www.w3.org/1999/xlink" x="0px" y="0px"
	 viewBox="0 0 2500 873" style="enable-background:new 0 0 2500 873;" xml:space="preserve">
<style type="text/css">
	.st0{fill:#FFFFFF;}
</style>
<g>
	<path class="st0" d="M295.2,0h136.6v632.5c-70.1,13.3-121.6,18.6-177.5,18.6C87.6,651.2,0.6,575.7,0.6,431.1
		c0-139.3,92.3-229.8,235.2-229.8c22.2,0,39,1.8,59.5,7.1V0z M295.2,318.4c-16-5.3-29.3-7.1-46.1-7.1
		c-69.2,0-109.1,42.6-109.1,117.1c0,72.8,38.2,112.7,108.3,112.7c15.1,0,27.5-0.9,47-3.5V318.4z"/>
	<path class="st0" d="M649.3,211v316.8c0,109.1-8,161.5-31.9,206.8c-22.2,43.5-51.5,71-111.8,101.2l-126.9-60.3
		C439,747,468.2,722.2,486.9,684c19.5-39,25.7-84.3,25.7-203.2V211H649.3L649.3,211z M512.6,0.7h136.6v140.2H512.6V0.7z
		 M731.8,242.1c60.3-28.4,118-40.8,181-40.8c70.1,0,116.2,18.6,136.7,55c11.5,20.4,15.1,47,15.1,103.8v277.7
		c-61.2,8.9-138.4,15.1-195.2,15.1c-114.5,0-165.9-39.9-165.9-128.7c0-95.8,68.3-140.2,236-154.4v-30.2c0-24.8-12.4-33.7-47-33.7
		c-50.6,0-107.4,14.2-160.6,41.7L731.8,242.1L731.8,242.1z M945.7,459.5c-90.5,8.9-119.8,23.1-119.8,58.6c0,26.6,16.9,39,54.1,39
		c20.4,0,39-1.8,65.7-6.2L945.7,459.5z M1131.1,232.3c80.7-21.3,147.3-31,214.7-31c70.1,0,120.7,16,150.9,47
		c28.4,29.3,37.3,61.2,37.3,129.6v268h-136.7V383.2c0-52.4-17.7-71.9-66.5-71.9c-18.6,0-35.5,1.8-63,9.8v324.8h-136.6V232.3z
		 M1587.1,720.4c47.9,24.8,95.8,36.4,146.4,36.4c89.6,0,127.8-36.4,127.8-123.3v-2.7c-26.6,13.3-53.2,18.6-88.7,18.6
		c-119.8,0-196.1-79-196.1-204.1c0-155.3,112.7-243.1,312.4-243.1c58.6,0,112.7,6.2,178.4,19.5l-46.8,98.6c-36.4-7.1-2.9-1-30.4-3.6
		v14.2l1.8,57.7l0.9,74.5c0.9,18.6,0.9,37.3,1.8,55.9v37.3c0,117.1-9.8,172.1-39,217.4c-42.6,66.6-116.3,99.4-221,99.4
		c-53.2,0-99.4-8-147.3-26.6L1587.1,720.4L1587.1,720.4z M1858.6,312.2h-14.2c-26.6-0.9-57.7,6.2-79,19.5
		c-32.8,18.6-49.7,52.4-49.7,100.3c0,68.3,33.7,107.4,94.1,107.4c18.6,0,33.7-3.6,51.5-8.9v-47c0-16-0.9-33.7-0.9-52.4l-0.9-63
		l-0.9-45.3L1858.6,312.2L1858.6,312.2z M2279.3,199.5c136.6,0,220.1,86.1,220.1,225.4c0,142.9-87,232.5-225.4,232.5
		c-136.7,0-221-86.1-221-224.5C2053,289.1,2140,199.5,2279.3,199.5L2279.3,199.5z M2276.6,547.3c52.4,0,83.4-43.5,83.4-118.9
		c0-74.5-30.2-118.9-82.5-118.9c-54.1,0-85.2,43.5-85.2,118.9C2192.3,503.9,2223.4,547.3,2276.6,547.3L2276.6,547.3z"/>
</g>
</svg>
