<?xml version="1.0" encoding="utf-8"?>
<!-- Generator: Adobe Illustrator 26.0.2, SVG Export Plug-In . SVG Version: 6.00 Build 0)  -->
<svg version="1.1" id="Layer_1" xmlns="http://www.w3.org/2000/svg" xmlns:xlink="http://www.w3.org/1999/xlink" x="0px" y="0px"
	 viewBox="0 0 600 265" style="enable-background:new 0 0 600 265;" xml:space="preserve">
<style type="text/css">
	.st0{fill:#FFFFFF;}
</style>
<g id="Layer_2_00000131356849999992258670000012525759430509977491_">
	<g id="Layer_1-2">
		<path class="st0" d="M470.8,205.9h-21.8c-0.4-0.5-0.8-1-1.1-1.6c-1.3-8.1-0.5-16.3-0.5-24.4c0-11-0.1-21.9,0-32.9
			c0-0.9,0.1-1.8,0.2-2.7c0.1-2.3-0.1-4.6,0-6.9c0-0.8,0-1.7,0-2.5c-0.1-2,0-3.9,0-5.9c0-0.9-0.1-1.7-0.1-2.6
			c0-11.4-0.1-22.9,0-34.4c0-3.7-1.3-5.7-5.2-5.5c-0.9,0-1.8,0-2.7,0c-13.7,0.2-27.4,0-41.1,0.1c-2.5,0-5.4-0.6-7.3,2
			c-1.5,3.1-4,3.6-7,2.4c-4-1.6-8-2.9-12.2-3.8c-1-0.2-2-0.7-3.1-0.8c-4.7-1.3-9.5-0.9-14.3-1c-0.8,0-1.5,0-2.3-0.1
			c-8.6,0.2-13.6,3.8-16.5,11.8c-0.8,2.4-0.8,5-0.1,7.5c2.1,9.2,9.7,12.8,17.2,16.5c0.6,0.3,1.2,0.6,1.9,0.9c4.4,2,8.9,3.8,13.2,6
			c1.5,0.7,3,1.1,4.4,1.8c2.7,1.3,5.1,3.1,7.8,4.4c1.2,0.8,2.5,1.6,3.7,2.4c14.9,11.5,17.6,26.5,13,43.8
			c-4.2,12.4-13.4,19.5-25.1,24.1c-2.7,0.4-5.4,0.4-8,1.1c-11.6,1.7-23.1,1.1-34.7-0.1c-2.4-0.4-4.7-0.8-7.1-0.9
			c-1.3-0.2-2.6-0.4-3.9-0.8c-7.3-1.9-8.5-3.5-8.6-11.1c0-3.3-0.1-6.6,0.1-9.9c0.3-4.6,1.7-5.7,6.1-4.1c5.5,2,11,3.7,16.6,5.1
			c3.7,0.8,7.5,1.4,11.3,1.8c3.9,0.9,7.9,1,11.8,0.3c4.9-0.6,9.4-1.9,13.4-5c1.1-0.8,2-1.9,2.7-3c3.9-6.1,3.6-12.3,0.1-18.5
			c-0.6-1.2-1.4-2.3-2.4-3.1c-4.5-3.6-9.4-6.6-14.7-8.9c-1-0.4-2-0.6-3-1c-5.1-2.6-10.6-3.4-16.3-3.3c-8.9,0.2-17.8,0.2-26.7,0
			c-2,0-4,0.1-5.9,0c-0.8,0-1.7,0-2.5,0c-1.4,0-2.8,0-4.1,0h-2.5c-2.6,0-5.3,0.2-7.9,0.1c-14.4-0.1-28.7,0-43.1,0
			c-1.8,0-3.7-0.3-5,1.4c-1.8,7-0.5,14.2-0.9,21.3c0.1,3.8,0,7.6,0,11.4c0.1,6.5,0.3,6.8,6.6,6.9c12.9,0.1,25.8,0.2,38.8,0.1
			c1.5,0,3-0.1,4.5,0c3.2,0.2,4.9,1.8,5,5c0.1,4.9,0.6,9.9-0.4,14.8c-0.3,0.6-0.7,1.1-1.1,1.6c-27.2,0-54.5,0.3-81.7-0.1
			c-6.8-0.1-12.1,2.7-17.7,5.4c-8.9,4.4-9.4,4.3-16.5-2.6c-0.9-0.9-1.9-1.8-2.9-2.7c-0.6-0.4-1.2-0.6-1.8-1c-3-3.2-5.2-7-7.8-10.6
			c-0.7-1.2-1.5-2.3-2.3-3.5c-6.6-10.8-13.1-21.5-19.9-32.1c-2.2-2.6-3-6.7-6.8-7.7c-5-1.3-10.2-0.8-15.4-0.3
			c-3,0.3-2.6,3.1-2.6,5.1c0,9.8-0.1,19.6,0,29.4c-0.2,6.4,0.6,12.8-0.5,19.1c-0.3,0.5-0.7,1.1-1.1,1.5c-6,0-12-0.1-18,0.2
			c-3.5,0.2-4-1.1-4-4.2C91,181,91,160.1,91,139.1c0-0.7-0.1-1.3-0.2-2c-0.5-0.6-0.5-1.5,0-2.1c0-21.4,0.2-42.8,0.1-64.3
			c0-3.6,0.6-4.8,4.5-4.7c15.1,0.3,30.2,0.2,45.4,0.3c3,0.6,6.1,0.4,9.1,0.9c3.6,0.2,6.9,1.5,10.2,2.8c1,0.4,1.9,0.8,2.9,1.2
			c16.5,9.2,20.7,23.9,18.9,41.4c-0.5,1.7-0.8,3.4-0.9,5.2c-1.9,6.4-4.9,12-10,16.4c-1.1,1.1-2.3,2.1-3.4,3.2
			c-0.6,0.6-1.3,1.1-2.1,1.5c-1.1,0.7-2.1,1.5-3.2,2.1s-2.3,1.2-3.4,1.9c-4.2,3.1,0.4,5.1,1,7.6c0.9,1.7,1.9,3.2,3,4.7
			c4.5,7.7,9.6,15.1,14.1,22.8c3.8,6.5,8.9,8.9,16.1,7.6c5.3-0.1,10.6-0.1,15.8,0c0.8,0,1.6-0.4,2.1-1c1.1-9.4,0.2-18.9,0.5-28.4
			c0.1-3.5-0.1-7,0.1-10.4c0-0.9,0-1.8,0-2.6c0-2.1,0-4.1,0-6.2c0-0.9,0-1.8-0.1-2.7c-0.1-15.8-0.3-31.6,0-47.4c0-0.9,0-1.9-0.1-2.8
			c0.2-5.4-0.5-10.9,0.5-16.4c0.3-0.5,0.6-1,1.1-1.5h76.7c0.5,0.4,0.9,0.9,1.3,1.5c1,3.2,0.5,6.5,0.5,9.8c0,8.4-0.8,9.1-9.4,9.1
			c-13.5-0.3-27,0-40.5-0.1c-2.8,0-5.1,0.5-5.2,3.9c-0.1,9.3-0.1,18.6,0,28c0.1,0.8,0.4,1.6,1,2.2c3.3,2,7,0.7,10.5,1
			c1.2,0.1,2.4,0,3.5,0.1c6.8-0.2,13.6-0.2,20.4-0.1c5.2,0.1,10.5-0.1,15.7,0c3.9-0.1,7.7,0,11.6,0h2.5c2.8,0,5.6,0.1,8.5,0
			c4.9-0.1,4.9-0.2,3.4-4.7c-2.8-8.3-3.9-16.7-1.7-25.4c3-11.8,10.5-19.2,21.1-24.2c1.7-0.2,3.5-0.6,5.2-1.1
			c12-2.8,24.6-2.9,36.6-0.3c1.7,0.2,3.3,0.3,5,0.1c42,0,84,0.1,125.9-0.1c4.6,0,5.6,1.3,5.2,5.5c-0.4,4.5-0.1,9-0.2,13.5
			c-0.4,0.5-0.9,0.9-1.4,1.2c-5.7,1.1-11.4,0.3-17.1,0.6c-0.9-0.1-1.8-0.1-2.6-0.1c-4.3,0.1-8.5,0.2-12.8,0.1
			c-3.1,0-4.5,1.4-4.4,4.5c0.1,4.3,0.1,8.6-0.1,12.8c0,0.9,0,1.8,0.1,2.7c-0.1,9.3,0.2,18.7-0.1,28c0,0.9,0,1.9,0,2.8
			c0.2,9.7,0.1,19.4,0.1,29.2c-0.1,0.9-0.1,1.9-0.1,2.8c0,11.7,0.8,23.3-0.4,35C471.7,204.9,471.3,205.4,470.8,205.9z"/>
		<path class="st0" d="M324,246.8c0-3.3-0.1-6.6,0-10c0-1-0.7-2.6,1.1-2.8c1.2-0.1,2.9-0.7,3.4,1.1c0.8,2.5,1.6,0.8,2.6,0.2
			c4.2-2.6,8.6-2.9,12.4,0.4c1.7,1.4,2.2,0.8,3.5-0.2c3.5-2.7,7.5-2.8,11.3-0.9c3.5,1.7,3.8,5.1,3.8,8.6c0,4.7-0.1,9.3,0,14
			c0.1,2.2-0.6,2.8-2.8,2.9c-2.4,0-2.7-1.1-2.6-3c0.1-4.3,0.1-8.6,0-13c-0.1-3-0.7-5.8-4.5-6s-6,2-6.2,5.6c-0.3,4.3-0.2,8.6-0.2,13
			c0,2,0,3.5-2.8,3.5c-2.6,0-3-1.1-2.9-3.3c0.1-4.3,0-8.6,0-13c0-2.9-0.7-5.5-4.1-5.7s-5.6,1.4-6.2,5c-0.8,4.5-0.2,9-0.4,13.4
			c-0.1,1.8,0.4,3.5-2.6,3.6c-3.2,0.1-2.9-1.8-2.9-3.8C324,253.1,324,249.9,324,246.8z"/>
		<path class="st0" d="M203.8,51.5c-2.5-0.1-5-0.1-7.3-1.2c-4.5-2.3-5.4-7.3-1.5-10.5c1.7-1.4,1-3.2,1.4-4c3.1-5.2-1.6-9-1.7-13.5
			s2.2-7.9,6.9-8.3c4.9-0.4,9.9,0,14.9,0c0.9,0,1.6,0.2,1.6,1.3c0,0.9-0.2,1.6-1.2,1.8c-1.8,0.2-2.8,0.4-2.3,3
			c1.2,6.8-2.1,10.4-9.4,10.8c-1.7,0.1-4.2-0.6-4.3,2c-0.1,3.2,2.8,1.9,4.6,2.1c2,0.3,4,0,5.9,0.3c3.2,0.5,5.7,1.9,6.1,5.5
			s-0.6,6.6-3.9,8.4C210.4,51.1,207.2,51.4,203.8,51.5z"/>
		<path class="st0" d="M422.8,251.7c1.1-4.5,2.1-9,3.3-13.5c1.1-4.3,1.1-4.3,6.5-4c-2.2,8-4.5,15.9-6.6,23.8
			c-0.6,2.4-2.4,1.8-3.9,1.9c-1.8,0.2-3-0.2-3.5-2.3c-1.5-5.9-3.2-11.8-5-18.3c-1.7,6.2-3.3,11.9-4.8,17.6c-0.6,2.2-1.5,3.2-4,3.1
			s-3.3-1-3.9-3.3c-1.6-6.4-3.6-12.8-5.3-19.2c-0.3-1.1-2.2-3,0.5-3.5c1.8-0.3,4-0.8,4.7,2.1c1.2,5.3,2.6,10.6,4.3,17.1
			c1.8-6.3,3.5-11.3,4.7-16.4c0.6-2.6,1.8-3,4.1-3.1s3.2,0.9,3.7,3c1.1,4.7,2.4,9.3,3.7,13.9c0.4,1.1,0.9,2.1,1.5,3.1
			c0.1,0.6,0.9-0.2,0.2,0c-0.3,0.1-0.5-0.4-0.5-0.7C422.4,252.6,422.5,252.1,422.8,251.7z"/>
		<path class="st0" d="M110.6,16.3c0-3.4,0.1-6.6,0-9.7c-0.1-2,0.5-3,2.8-3s2.7,0.9,2.7,3c-0.1,10.3,0,20.6-0.1,30.9
			c0,0.9,0.6,2.2-0.8,2.5c-1.1,0.2-2.8,0.7-3.2-0.4c-1.3-3.6-2.6-1.1-4-0.3c-4.6,2.8-10.7,1.4-13.5-3.3c-0.4-0.7-0.8-1.5-1-2.3
			c-1.3-4.2-1.3-8.6,0-12.8C95.6,13.5,102.2,11.7,110.6,16.3z"/>
		<path class="st0" d="M509.7,259.3c-5.3,2.2-7.3-1.2-9.8-4.4c-1.6-2-2.2-6.2-5.4-5.4c-3.5,0.9-2,4.8-2.1,7.4c-0.1,1.9-0.2,3-2.6,3
			c-2.6,0.1-2.9-1.1-2.9-3.2c0.1-10,0.1-19.9,0-29.9c0-2-0.1-3.5,2.7-3.4s2.7,1.6,2.7,3.6c0,5.9,0,11.8,0,17.9
			c5.8-3.1,7.4-12.3,16.8-10.7c-2.7,2.9-4.9,5.6-7.4,7.9c-2.2,2.1-2.6,3.7-0.5,6.2C504.3,251.7,506.9,255.6,509.7,259.3z"/>
		<path class="st0" d="M317,249.4c0,2.7,0,5.3,0,8c0,0.9,0.5,2.2-0.9,2.4c-1,0.2-2.6,0.8-3.1-0.7c-1.1-3.3-2.3-1.4-3.7-0.4
			c-2.1,1.6-4.6,1.7-7.1,1.5c-4.1-0.2-6.4-2.5-7-6.5s1-6.8,4.6-8.4c2.6-1.1,5.5-1.2,8.3-1.5c1.2-0.1,3.4,1,3.4-1.6
			c0-2.1-0.7-4-3.2-4.4c-2.3-0.4-4.7-0.1-6.8,0.9c-1.5,0.7-2.4,0.1-3-1.4c-0.9-1.9,0.4-2.3,1.7-2.7c3.6-1.3,7.5-1.6,11.3-0.6
			c3.5,0.9,5.2,3.4,5.5,6.9C317.1,243.7,317,246.6,317,249.4L317,249.4z"/>
		<path class="st0" d="M158.1,29.5c0,2.7,0,5.3,0,8c0,0.9,0.5,2.2-0.9,2.5c-1.2,0.2-2.8,0.8-3.3-1.1c-0.8-2.6-1.8-1.2-3-0.2
			c-2.2,1.8-4.9,2-7.6,1.8c-4.1-0.2-6.4-2.5-7-6.5s0.9-6.8,4.6-8.4c2.6-1.1,5.5-1.2,8.3-1.5c1.2-0.1,3.4,1,3.4-1.6
			c0-2.1-0.7-4-3.1-4.4c-2.3-0.4-4.7-0.1-6.8,0.9c-1.5,0.7-2.4,0.1-3.1-1.4c-0.9-1.9,0.3-2.3,1.6-2.8c3.6-1.3,7.5-1.6,11.3-0.7
			c3.5,0.9,5.3,3.4,5.5,6.9C158.2,23.9,158,26.7,158.1,29.5L158.1,29.5z"/>
		<path class="st0" d="M459.8,246.9c0,8.4-4.5,13.5-12,13.5c-7.9,0-12.3-5-12.3-13.7c0-8.5,4.3-13.2,12.2-13.2
			C455.2,233.5,459.8,238.5,459.8,246.9z"/>
		<path class="st0" d="M245.8,27.2c0,8.4-4.6,13.4-12.1,13.3c-7.8-0.1-12.2-5.1-12.1-13.8c0.1-8.5,4.4-13.1,12.3-13
			C241.4,13.7,245.9,18.8,245.8,27.2z"/>
		<path class="st0" d="M165,27c0-3.3-0.1-6.6,0-10c0-1-0.7-2.5,1-2.8c1.1-0.2,2.8-0.6,3.2,0.6c0.9,2.8,1.9,1.3,3.3,0.5
			c8-4.7,15.2-0.5,15.3,8.7c0.1,4.3-0.1,8.6,0.1,13c0.1,2.3-0.6,3.2-3,3.2s-2.7-1-2.7-3c0.1-4.5,0-9,0-13.5c0-3-1-5.3-4.4-5.5
			s-5.9,1-6.7,4.5c-1.1,4.8-0.5,9.6-0.5,14.4c0,2.4-0.8,3.1-3.1,3.1c-2.7,0-2.4-1.5-2.4-3.2C165.1,33.6,165,30.3,165,27z"/>
		<path class="st0" d="M382.2,248.1c-1.3-0.1-2.7-0.1-4,0c-1.4,0.2-3.3-0.9-3.9,0.8c-0.6,1.6,0.3,3.3,1.4,4.6
			c3.1,3.7,7.2,2.6,11.1,2c1.1-0.2,2.5-1.8,3.2,0.3c0.6,1.8-0.2,3.1-2.1,3.8c-5.3,1.9-13.1,0.5-16.4-3c-3.4-3.8-4.1-12.6-1.4-17.5
			c2.6-4.6,8.2-6.7,13.9-5.1c4.7,1.3,7.7,6.2,7.4,11.7c-0.1,2-0.9,2.6-2.7,2.5C386.6,248,384.4,248.1,382.2,248.1z"/>
		<path class="st0" d="M259,249.1c0-2.8,0-5.7,0-8.5c0-1.1,0.3-2.4-1.5-2.5c-1-0.1-2.6,0.4-2.5-1.4c0-1.2,1-1.7,2-1.9
			c2.1-0.5,2-2.2,2.3-3.9c0.9-6.1,4.8-8.8,11-7.5c1.1,0.2,3.4-0.3,2.9,2.3c-0.3,1.8-1.2,2.5-3.1,2.2c-1-0.2-2-0.1-3,0.1
			c-2,0.6-2,2.3-2.1,4c-0.1,2.1,1.3,1.8,2.6,1.9s3.5-1,3.6,1.9s-1.8,2.3-3.3,2.2c-2.7-0.2-2.9,1.2-2.9,3.4c0.1,5-0.1,10,0.1,15
			c0.1,2.3-0.2,3.6-3.1,3.6s-2.8-1.4-2.7-3.4C259.1,254.1,259,251.6,259,249.1z"/>
		<path class="st0" d="M509.9,85.2l1-0.3c0,15.1,0.2,30.3,0,45.4c0,3.8,1.2,4.9,4.8,4.7c3.9-0.2,7.8-0.6,12.9,0.7
			c-5,2-9.1,1.2-13,1.1s-4.8,1.2-4.7,4.9c0.2,19.8,0,39.6,0.1,59.4c0,3.6-0.9,4.9-4.7,4.9c-11.8-0.3-23.6-0.1-35.5-0.1
			c0.1-0.3,0.2-0.7,0.3-1c1.4-1.4,3.3-1.4,5.1-1.4c9.8,0,19.6-0.3,29.3,0c0.9,0,1.7-0.4,2.3-1c0.5-1.6,0.7-3.3,0.5-4.9
			c0-17.6,0-35.2,0-52.7c0-5.9-0.4-6.2-6.2-6.3c-5-0.1-10,0-14.9,0c-2.1,0-4.4,0.1-6.2-1.2c-0.7-0.7-0.7-1.8-0.1-2.6
			c4.9-2.4,10.1-1.1,15.2-1.2c13.7-0.3,12.1,1.5,12.2-12.3c0.1-9.8,0-19.6,0-29.3C508.4,89.5,508.1,87.1,509.9,85.2z"/>
		<path class="st0" d="M129.5,30.3c0,4.5,0.1,9,0,13.5c-0.2,5.8-4.2,8.7-9.7,7.7c-1.3-0.2-2.5-0.5-2.5-2.4s0.9-2.2,2.5-2
			c3.7,0.3,4.4-2,4.4-5.1c0-8.1,0-16.3,0-24.4c0-1.8-0.4-3.6,2.6-3.5c2.7,0,2.9,1.2,2.9,3.3C129.4,21.7,129.5,26,129.5,30.3z"/>
		<path class="st0" d="M290.2,67.1c-0.1-0.3-0.2-0.7-0.3-1c9.8-0.2,9.8-0.2,10.1-10.3c0-1.1-0.4-2.3,1.3-3.5
			c1.2,2.9,0.8,5.9,0.6,8.6c-0.4,4.3,1.3,5.3,5.4,5.2c10.3-0.2,20.6,0,30.9,0.1c-1.2,1-2.7,1.6-4.2,1.8c-8.2,0.9-16.5,0.4-24.7,0.5
			c-5.2,0.1-5.7,0.6-5.7,5.7c0,4.3-0.3,8.6,0.9,12.8c-1.2,3.2-1.2,6.7,0,9.9c-1.5,6.2-0.6,12.5-0.9,18.8c-0.1,2.4,0.4,5-1.4,7.1H300
			c-1.8-1.9-1.3-4.3-1.4-6.6c-0.2-6.4,0.6-12.9-0.8-19.3c1.1-3.4,0.9-6.9,0.6-10.4c0.4-4.1,0.1-8.3,0.3-12.4c0.2-3.9-1.1-6-5.3-5.8
			C292.2,68.4,291,68,290.2,67.1z"/>
		<path class="st0" d="M363.9,205.9c2.5-1.1,5.2-1.8,7.9-2.1c19.5-0.8,38.9-0.2,58.4-0.4c8.2-0.1,8.2,0,8.2-8.4c0-6.8,0-13.6,0-20.5
			c0-2.1-0.1-4.4,1.1-6.3c0.6-0.7,1.7-0.9,2.6-0.4c1.7,2,1.4,4.3,1.4,6.6c0.1,7,0.3,13.9-0.1,20.8c-0.2,4.6,0.6,8.1,5.4,9.7l0.3,1
			c-7.1,0.2-7,0.2-7.1,7.3c0,2,0.7,4.2-1,6.8c-1.6-3.3-1-6.4-0.8-9.4c0.2-3.8-1.2-4.7-4.9-4.7C411.4,206,387.6,205.9,363.9,205.9z"
			/>
		<path class="st0" d="M300,142.1h2.1c1.9,2.1,1.5,4.7,1.5,7.1c0,15.6,0,31.3,0,46.9c0,6.8,0.3,7.2,7,7.1c4.2-0.1,8.2,1.1,12.4,0.8
			l6.3,1.6c-7.1,0.1-14.3,0.4-21.4,0c-4.5-0.2-6.5,1.1-5.8,5.8c0.2,1.2,0.4,2.6-0.8,3.9c-0.4-0.3-0.9-0.5-1-0.8
			c-0.9-2.8,1.5-6.7-1.5-8.2c-2.4-1.2-5.9-0.4-8.8-0.6c0.1-0.3,0.2-0.6,0.3-1c0.3-0.4,0.8-0.6,1.2-0.9c7-2.3,7-2.3,7-9.6
			c0-15.1,0-30.1,0-45.2C298.5,146.8,298.1,144.2,300,142.1z"/>
		<path class="st0" d="M471.3,237.7c2.2-2.1,4.3-4.3,7.6-4.2c1.3,0,3-0.3,2.8,1.8c-0.2,1.3,0.4,3.1-2.4,3.3
			c-6.2,0.6-7.8,2.8-7.8,9.1c0,3.1-0.1,6.3,0,9.4c0.1,2.2-0.8,2.7-2.9,2.8c-2.4,0.1-2.7-1-2.6-3c0.1-6.1-0.1-12.3,0.1-18.4
			c0.1-1.5-1.8-4.1,1.6-4.7C470.8,233.4,470.2,236.2,471.3,237.7z"/>
		<path class="st0" d="M281.2,237.9c2.3-2.3,4.3-4.4,7.4-4.4c1.4,0,3.4-0.5,3.1,1.9c-0.1,1.4,0.2,3-2.6,3.2
			c-5.9,0.5-7.5,2.8-7.7,8.8c-0.1,3.1-0.1,6.3,0,9.4c0.1,2.3-0.6,3.1-3,3.1s-2.5-1.4-2.5-3.1c0-6.1-0.1-12.2,0.1-18.4
			c0-1.5-1.4-3.8,1.3-4.5C280.5,233.1,280.5,235.9,281.2,237.9z"/>
		<path class="st0" d="M170.2,204.9l0.9,1c-9.1,0.1-9.1,0.1-9.1,9.3v19.1c-2.6-1.7-1.9-3.8-2-5.8c-0.1-6.1-0.2-12.3,0-18.4
			c0.1-3.3-1.1-4.3-4.3-4.2c-14.3,0.1-28.6,0-42.9,0c0.1-0.3,0.2-0.6,0.3-1c2.1-1.9,4.7-1.5,7.1-1.5c10.8-0.1,21.6,0,32.4,0
			c5.3,0,5.5-0.4,5.8-5.7c0.1-2.4-0.5-5.1,1.8-7c1,0.7,1.7,1.7,1.9,2.9c0.5,0.9,0.8,1.8,0.9,2.8
			C162.7,201.5,165.6,203.9,170.2,204.9z"/>
		<path class="st0" d="M213.1,66.1l-0.3,1c-2.1,1.9-4.7,1.5-7.1,1.5c-11.9,0.1-23.9,0.1-35.8,0c-3.2,0-5.8,0.8-7.8,3.3l-2.1-1
			c-2.5-3.7-6.3-2.9-9.9-3l-9.2-1.8L213.1,66.1z"/>
		<path class="st0" d="M90.9,135v2.1H70.7V135H90.9z"/>
		<path class="st0" d="M129.9,7.5c0,1.6-1.4,2.9-3,2.8c-0.2,0-0.3,0-0.4,0c-1.4,0-2.6-1.1-2.7-2.5c0-0.1,0-0.3,0-0.4
			c-0.2-1.5,0.9-2.8,2.3-3c0.2,0,0.5,0,0.7,0c1.6-0.1,3,1.2,3,2.8C129.9,7.3,129.9,7.4,129.9,7.5z"/>
		<path class="st0" d="M422.8,251.7c0.1,0.8,0.6,2.3-0.4,2.2c-1.2-0.2-1.5-1.8-1.2-3.1L422.8,251.7z"/>
		<path class="st0" d="M372,86c4.8,0.3,9.2,2.4,13.5,4.2c2,0.8,3.3,0.8,4.2-1.2c2.4-1.4,3.7,0.5,5.1,1.8
			c13.5,12.8,26.4,26.1,39.3,39.4c1.7,1.8,4.4,4,0,6.1c-16.2,0.5-32.4,0.2-48.6,0.2c-2,0-4-0.4-5.8-1.2l-7.8-4.2
			c-1.1-1.7-1.6-3.7-1.4-5.6c0-11.4,0-22.8,0-34.1C370.6,89.3,370.5,87.5,372,86z"/>
		<path class="st0" d="M439.9,168.1c0,10.9,0,21.9,0.2,32.8c0.1,3.4-1.3,4.1-4.4,4.1c-19.9-0.1-39.8-0.1-59.8-0.1
			c-1.4,0-3,0.4-4.1-1.2c10.9-4.6,19.5-11.6,24.1-22.8c2-3.2,3.9-6.4,6.8-8.9c2.4-2.2,4.7-4.4,7.9-5.2c8.2-0.4,16.5-0.1,24.8-0.2
			C437,166.6,438.7,166.6,439.9,168.1z"/>
		<path class="st0" d="M160.3,190.7c-0.1,3.3-0.4,6.6-0.1,9.9c0.3,3.6-1.3,4.4-4.6,4.4c-14.1-0.2-28.2-0.1-42.3-0.1
			c0-6.7,0-13.3,0-20c0.9-2.5,2.3-4.8,4.2-6.6c5.8-5.7,11.6-11.4,17.1-17.4c1.6-1.8,3.3-4.1,6.3-2
			C147.3,169.5,153.8,180.1,160.3,190.7z"/>
		<path class="st0" d="M286,142.1h8c0.5,1.9-0.9,3.1-1.7,4.5c-2.9,3.4-6.4,6.4-9.3,9.8c-0.8,1-2,3.2-3.5,0.4c0-2.6,0.1-5.3,0-7.9
			s0.7-4,2.9-3.6c-1.3,0-3.2,0.4-5.1-0.1c-0.6-0.3-0.2,1.1-0.1,0.5c0-0.2,0.1-0.2,0.3-0.2c2.4-0.1,2,1.6,2.1,3.1
			c0.1,3.5-0.1,6.9,0.2,10.4c-7.1,8.2-15.2,15.6-23.5,24.3c7.6,0.6,14,0.1,20.4,0.4c2,0.1,4.5-0.8,5.4,2.1c-14.6,0-29.2,0-43.8,0.1
			c-2.3,0-3.3-0.6-3.2-3c0.2-5.6,0.2-11.3,0.2-16.9c0.3-1.7,1.2-3.3,2.6-4.4c2.2-1.8,4.6-3.5,5.9-6.1c0.3-0.6,0.6-1.2,1-1.7
			c2.4-2.1,5-3.9,6.4-6.9c0.8-1.4,1.9-2.5,3.3-3.3c2.3-1.4,4.8-0.9,7.3-0.9C269.8,142.3,277.9,143,286,142.1z"/>
		<path class="st0" d="M509.9,85.2c0,15.1-0.1,30.2,0.1,45.4c0,3.5-1.1,4.6-4.5,4.5c-8.1-0.2-16.3-0.1-24.4-0.2
			c-1.6-1.4-1.5-3.3-1.5-5c0-10.6-0.2-21.2,0.1-31.7c0.6-3.7,3.8-5.4,5.9-7.9c0.3-0.3,0.7-0.7,1-1c1.6-1.5,3.2-3.2,5.4-4L509.9,85.2
			z"/>
		<path class="st0" d="M436,134.9c-0.2-0.6-0.2-1.4-0.6-1.8c-9.4-9.6-18.9-19.1-28.4-28.6c-4.1-4.1-8.3-8.2-12.4-12.3
			c-1.4-1.4-2.6-3.2-4.9-3.2c0.3-2.7,1.3-4,4.4-4c15.3,0.2,30.5,0.2,45.8,0.2c1.3,1.3,1.4,2.9,1.4,4.6c0.1,13.6,0.1,27.1,0,40.7
			C441.2,135.3,440.2,136.1,436,134.9z"/>
		<path class="st0" d="M141.2,153c-2.4-6.2-7.4-7.1-13.2-6.8c-4.7,0.2-9.3,0.1-13.9-0.3c-3.5-0.3-4.1,1-4,4.1
			c0.1,12,0,23.9-0.1,35.9c-4.3,5.9-8.8,11.7-15.7,14.9v-63.9c1.4-1.5,3.3-1.4,5.1-1.4c18.1,0,36.2-0.1,54.3,0c2,0,4.5-0.8,5.3,2.2
			c-2,1-4,2.2-6.1,3.1c-1.4,0.6-2.3,1.2-1.8,2.9C151.2,150.2,146.6,154.4,141.2,153z"/>
		<path class="st0" d="M355,146.9c5.4,2.3,10.7,4.8,14.9,9.1c2.3,8.4,2.3,17.3,0,25.7c-3.8,3.7-8.5,5.2-13.7,5.3
			c-3.5,1.3-5.9-0.6-8.3-2.9c-11.5-11.6-23.1-23.2-34.8-34.8c-1.5-1.5-2.9-3.2-4.9-4.1c-1.1-0.9-1.3-2-0.3-3.1
			c11.5-0.1,22.9-0.2,34.4-0.1c3.9,0,7.2,2.3,10.5,4c0.1,4.8,2.3,9.7-1.3,14.1c-0.4,0.3-0.9,0.5-1.3,0.7c-1.9,0.7-3.5,2.1-4.4,3.9
			c-0.7,1.6-1,3.3-0.7,5c0.5,3.5,3.1,6.2,6.6,6.9c1.4,0.3,2.9,0.2,4.3-0.2l1.2-0.5c1.8-0.9,3.2-2.5,3.9-4.4c0.8-2.2,0.7-4.6-0.3-6.7
			c-1-2.1-2.9-3.6-5.1-4.1c-0.5-0.2-0.9-0.5-1.3-0.8C353.3,155.5,352.1,151.1,355,146.9z"/>
		<path class="st0" d="M493.9,81.9c-7.5,0.1-15,0.2-22.5,0.1c-2.8-0.1-3.6,0.8-3.6,3.6c0.1,7.5,0,15-0.1,22.5
			c-4.3,6-8.8,11.7-15.6,15c-0.1-11.8-0.3-23.6-0.1-35.4c0.1-4.4-1-6.4-5.6-5.6c-1.5,0.1-3,0.1-4.5-0.1c-2.2-3.9-2.2-8.7,0-12.7
			h63.9C503.7,75.1,498.8,78.5,493.9,81.9z"/>
		<path class="st0" d="M280.2,158c3.7-4.2,7.2-8.6,11.8-12c1-1.6,2.3-2.9,4-3.8h4c0,18.8,0,37.5,0,56.3c0,6.5,0,6.5-6.4,6.5
			c-1.2,0-2.3,0-3.5,0c0-4.6-0.4-9.3-0.1-14c0.4-4.2-1-5.7-5.1-5c-1,0.1-2,0-3-0.1c-6.7-1.9-13.5-0.3-20.2-0.8c-1.7-0.1-3.3,0-5,0
			c-0.8,0-1.8,0.2-2.2-0.8s0.4-1.6,0.9-2.1c7.3-7.5,14.7-14.9,22-22.3c0.2-0.2,0.9,0.2,1.4,0.3c1.5,7.4,0.2,14.7,0.7,22.4
			c0.8,0,1.7,0,2.5,0c0.4,0.4-0.3-0.9-0.2-0.2c0,0.4,0,0.3-0.4,0.3c-1.1-0.2-2-0.6-2-1.8C279.9,173.1,278.7,165.5,280.2,158z"/>
		<path class="st0" d="M162.1,71.9c-0.6-3.5,0.4-5,4.4-4.9c15.4,0.2,30.9,0.1,46.3,0.2v16.9c-1.9,4.4-5.8,7.1-9.1,10.3
			c-4.1,4-7.5,8.8-12.6,11.6c-6.1,0.5-6.6,0.2-6.6-4.8c-0.3,3.3,1.2,6.4,1,9.7c-0.1,1.8-1.3,3.4-3,4c-2.1,0.7-2.2-0.5-1.6-2.1
			c-0.1-4.5,0.2-9-0.3-13.4C179.3,87.1,173.2,77.8,162.1,71.9z"/>
		<path class="st0" d="M308,142.2c0,1-0.1,2.1,1,2.8c10.8,9.6,20.5,20.2,30.8,30.3c3.6,3.6,7.6,6.9,10.8,11.4c-2.2,0.9-4.7,1-7,0.4
			c-9.8-0.2-18.9-3.2-27.9-6.7c-5.1-2-5.1-2-5.1,3.6v3.5c0,12.9,0,12.9,12.3,16.6c-6.2,1.7-12.5,0.6-18.7,0.7
			c-3.2,0-2.2-2.8-2.2-4.5c0-19.4,0-38.8,0-58.1L308,142.2z"/>
		<path class="st0" d="M212.9,86.1c0,16.3,0,32.6,0,48.9c-1.4,1.5-3.3,1.4-5.1,1.4c-10.8,0-21.6,0.1-32.4,0c-2,0-4.5,0.8-5.3-2.3
			c4.6-4.5,7.6-10.1,9.9-16c4.5-4.2,7.1-10.2,13.2-12.7c4,0.4,7.9,0.1,11.9,0.2c1.6,0,3.6-0.3,3.4,1.7c-0.5-1.4,0.2-3.3-0.1-5.1
			c0.5,2.6-0.7,3.6-3.3,3.4c-3.3-0.2-6.6,0-9.9,0c-0.8-0.1-2.1-0.5-1.3-1.3C199.9,97.8,205.3,90.8,212.9,86.1z"/>
		<path class="st0" d="M94.2,135c0-20.9,0-41.9,0-62.9c0.5-0.2,1.1-0.3,1.4,0c5.7,5,11.7,9.7,15.5,16.4c0.8,12.6,0.2,25.3,0.3,37.9
			c0.1,6,0,5.9,6,6.1c11.2,0.4,22.3-0.4,32.9-4.3c2.3,0,4.6,1.1,5.9,3c1.1,1.4,2.3,3.1-0.1,4.5c-19.6,0.6-39.2,0.1-58.8,0.2
			C96.2,136.1,95.1,135.7,94.2,135z"/>
		<path class="st0" d="M357,80.2c-2.3,0.3-4.6,0.6-6.9,0.8c-12.7,1.5-19,9.4-19,23.8c-2.4,5.9-6.3,10.3-12.5,12.4
			c-10.6-21.8,1.3-44.5,25.5-49c7.9-1.4,15.9-1.9,23.8-0.1C366.2,73.9,361.4,76.8,357,80.2z"/>
		<path class="st0" d="M403,173c-2.5,2.5-3.9,6-7.1,8c0.9-5.2,1.9-10.4,1.8-15.8c-0.4-11.8-5.9-20.8-14.9-28.1c1.3-1.4,3.1-1,4.7-1
			c16.2,0,32.3-0.1,48.5,0c3.6,0.6,2.3,2.5,1,4.1c-2.9,3.4-6.2,6.4-9.4,9.6c-1.8,1.7-3.5,3.5-4.9,5.6c-4,4.1-8.1,8.1-12.1,12.1
			c-1.8-0.1-3.4,1-5.3,0.8c-2-0.3-4-0.5-3.8-2.6c0,1.6,1,3.8,1.1,6.1C402.8,172.1,402.9,172.5,403,173z"/>
		<path class="st0" d="M376,137c13.3,6.7,19.3,17.8,18.6,32.5c-0.8,15-8.6,25-22.6,30.4c-2.5-5-1.8-10-0.2-15c9-11,9.1-20.5,0-31.6
			c-2.2-4.3-1.3-9-1.1-13.4C371,136.3,373.2,135.8,376,137z"/>
		<path class="st0" d="M248,122.9h-12c-1.1-11.6-0.2-23.2-0.5-34.8c-0.1-2,1-2.4,2.8-2.5c7.2-0.6,13.6,0.3,18.6,6.8
			c4.3,5.7,10.5,9.8,14.7,15.6c0.2,0.5,0.3,1.1,0.3,1.6c-0.1,0.8-0.5,1.5-1.1,2c-1.6,0.9-3.6,1-5,2.4c-2.3,2.8-6,2.9-8.9,4.7
			c-1.3,0.8-2.6,1.7-3.9,2.6c-0.4,0.3-0.8,0.5-1.2,0.7C250.5,122.1,249.2,122.4,248,122.9z"/>
		<path class="st0" d="M94.2,70.1c0.1-0.8,0.7-1,1.3-1c16.2,0.4,32.5-1,48.6,1c5.5,0.7,11.1,1.7,15.9,4.8c2,6.8,2.1,14.1,0.1,21
			c-1.6,1-2.6-0.2-3.3-1.2c-5.7-7.9-14.1-10-23-10.9c-6.6-0.7-13.2-0.3-19.9-0.2c-1.2,0.1-2.3,0.5-3.1,1.4c-1.2,0.9-2.2,0.4-3-0.5
			C103.4,79.6,98.2,75.4,94.2,70.1z"/>
		<path class="st0" d="M226,202.8c-5.9,0.1-11.9,0.3-17.8,0.1c-4.5-0.1-8.8,0.1-12.9,2.2c-6.8,1.6-13.5,2.2-20.3-0.1
			c-5.5-5.4-9.6-11.9-13.1-18.7c-1.5-7.9-2.4-15.7,0.3-23.5c4.9,7.3,10,14.4,14.6,21.9c2.5,4.1,5.5,6.2,10.4,5.4c2-0.2,4-0.1,6,0.1
			c3.5,1.4,5.7,4.3,8.1,6.9c2.7,2.9,4.7,3.2,6.6-0.6c0.3-0.6,0.6-1.2,1-1.8c2.1-1.4,3.4-3.8,6.3-3.9
			C219.3,194.2,224.1,197.1,226,202.8z"/>
		<path class="st0" d="M229,69.2c0.3-0.2,0.7-0.2,0.9,0c2.5,3.1,1.5,6.7,1.4,10.1c-0.5,16.1-0.5,32.3,0,48.4
			c0.3,8.2-6.3,11.5-15.2,7.3V82.1C219.3,76.8,223.7,72.4,229,69.2z"/>
		<path class="st0" d="M354,84c5.4-0.8,10.7,0,15.9,1.3c1.1,1.2,1.1,2.8,1.1,4.2c0,11.8,0.1,23.6,0,35.4c0,1.8,0.8,4.8-3,4.1
			l-14-6.2c-0.3-4.3-2.1-8.8,1-12.8c0.4-0.2,0.8-0.5,1.3-0.7c2.3-0.8,4.2-2.6,5-4.8c0.7-2.2,0.6-4.5-0.3-6.6
			c-0.8-1.8-2.3-3.2-4.2-3.8c-0.4-0.1-0.8-0.3-1.2-0.4c-1.6-0.6-3.4-0.6-5,0l-1.2,0.6c-1.5,0.8-2.8,2.1-3.5,3.7c-1,2-1,4.5,0.2,6.5
			c0.2,0.4,0.4,0.8,0.5,1.2c0.5,1.9,2,2.8,3.6,3.5c0.5,0.2,0.9,0.4,1.4,0.7c3.6,3.8,1.5,8.2,1.3,12.3c-8-3.5-16.2-6.8-18.1-16.8
			c-0.7-1.4-0.3-3.1,0.9-4.1C341.8,95.4,346.9,88.7,354,84z"/>
		<path class="st0" d="M290.2,67.1c9.8-0.2,10-0.2,9.8,9.9c-0.1,3.3,1.1,6.9-1,10.1c-0.5,0.9-0.4,2.1-1.3,2.9c-1.2,1.2-1,2.8-1,4.3
			c-0.3,1.1-1,2.1-2,2.7c-1.4,0.8-2.8,1.5-4.2,2.2c-2.9,1.3-4.6,4.3-7.7,5.3c-1.9,0.3-3.7,1.1-5.2,2.3c-0.6,0.4-1.1,0.8-1.8,1.2
			c-1.4,0.6-2.8,1.3-4.2,0c-7-7-14.1-14-21.9-22c11.7-1,22.2,0.2,32.5-0.8c8-0.4,8-0.4,8-8.6C290,73.4,290.1,70.3,290.2,67.1z"/>
		<path class="st0" d="M439.9,81.9c-15.6,0-31.1,0.2-46.7,0.1c-2.4,0-4.5,0.3-6.2,2.1c-2.2,0.7-2.9-1.2-4-2.3
			c-2.9-4.6-8.3-7-10.4-12.2l0.3-0.7c20,0.1,40,0.1,60,0.2c2.3,0,4.7,0.1,7,0.2C441.6,73.3,441.6,77.8,439.9,81.9z"/>
		<path class="st0" d="M302,122.8c0-7.2,0-14.5-0.1-21.7c0-2.1,0.4-3.9,2.1-5.2c-0.1-0.9,0.1-1.7,0.5-2.5c0.8-1.1,0.6-2.6-0.3-3.6
			c-0.3-0.6-0.7-1.1-0.3-1.8c-3.1-2.3-2-5.7-2-8.7c-0.1-12.3,0-12.5,12.4-12.3c6.5,0.1,13.1-1.2,19.6,0.9
			c-20.6,10.8-27.3,29.6-18,50.9c1.3,3,1.6,4.5-2.5,4.2C309.7,122.8,305.9,122.9,302,122.8z"/>
		<path class="st0" d="M467.8,165c0.1,11.6,0.1,23.3,0.2,34.9c0,2.3-0.6,3.1-3,3.2c-13,0.6-13,0.7-13-12.1c0-13.6,0.1-27.3,0.2-40.9
			c1-0.3,2,0,2.7,0.8C459.2,155.5,464.6,159.2,467.8,165z"/>
		<path class="st0" d="M162.1,75.9c1.2,0.5,2.4,1.2,3.5,1.8c18.1,13,16.8,46.3-2.3,57.4c-3.1-0.5-2.4-3.1-2.5-5
			c-0.2-6.4-0.1-12.8-0.1-19.1c-0.2-10.3,0.7-20.6,0.4-30.9C161,78.6,160.8,77.1,162.1,75.9z"/>
		<path class="st0" d="M312,126.2h10.9c0-3-2.7-4.4-3-6.8c2.6-5.4,7-9.2,12-12.3c2.5,8.1,8.8,12.6,16,16.2c1.8,0.9,3.5,1.9,5.2,2.8
			c3.2,7,1.4,10.3-5.9,10.3c-13.7,0-27.5,0.3-41.2-0.2c-2.7-0.7-2.4-2.3-1-4C306.8,129.7,308.9,127.4,312,126.2z"/>
		<path class="st0" d="M165,138.2l1.9-1.3c1.3-0.7,2.8-1,4.3-0.9c12.5,0.1,24.9,0,37.4,0c1.5,0,3-0.1,4.2,1c0,2,0,4,0,5.9
			c-0.7,2-2.8,2.5-4.3,3.6c-0.5,0.4-1.1,0.8-1.6,1.1c-1.8,1-3.7,1.8-5.1,3.2c-0.3,0.3-0.7,0.6-1.1,0.8c-1.9,0.6-3.7,1.6-5,3.1
			c-2.6,1.4-4.2,4.1-7.3,4.7c-1.9,0-3.7,0.7-5.6,0.2c-6.7-4.9-12.6-10.8-17.5-17.5C164.4,141,163.8,139.6,165,138.2z"/>
		<path class="st0" d="M304,135l42.5,0.1c6.5,0,6.5,0,6.5-6.4c0-0.8,0-1.7,0-2.5c0.8-0.1,1.6,0.2,2.1,0.9c0.9,6.6,0.9,6.7,7.8,6.6
			c2.4,0,4.9,0.4,7.3,0.3c2.2,0.6,4.2,1.6,6,3.1c-2.8-0.2-4.3,0.5-4.1,3.8c0.3,4.1,0,8.2,0,12.4L369,151c-0.5-2.6-0.7-5.2-0.4-7.8
			c0.2-3.7-1.4-4.9-5-4.8c-3.9,0.1-8-0.5-9.6,4.5l-1.1-0.6c-1.3-3.4-4.4-3.9-7.3-4c-13.9-0.3-27.8-0.2-41.7-0.1
			c-0.7,0-1.3,0.3-1.8,0.7h-2.1c-1.8-1.2-3.9-0.8-5.8-0.8c-11.8,0-23.6,0-35.4,0c-7.2-0.1-14.3,0-21.5,0c-1.8,0-3.7-0.5-5.1,1.2
			c0,16.5,0,33,0,49.5c2.2,4.7,2.4,9.4,0,14.1h-2c-1.6-1.8-1.5-4-1.5-6.1c0-7.1-0.1-14.3,0.1-21.4c0-0.9-0.3-1.7-0.3-2.6
			c0.6-9.6,0.1-19.1,0.3-28.7c0.1-3.7-1.1-5.7-5.1-5.1c-2.4-0.6-5.2,0.2-7.3-1.7c0-0.7,0-1.4,0-2.1c15.7,0.2,13.8,0.9,13.8-13.4
			c0-17.5,0-34.9,0-52.3h2.1c0.4,0.4,0.8,1,1,1.5c0.5,3.9,1.3,7.9-1,11.5v43.6c1.6,1.7,1.1,4.1,1.9,6c1.2,2.4,3.4,1.6,5.3,1.6
			c7.6,0.1,15.2,0.1,22.8,0c0.9,0.1,1.8,0.1,2.6,0.1c10.3-0.2,20.7-0.2,31-0.1c2.1,0.2,2.8-1,3-2.9c0.1-1.6,0.1-3.2,1.3-4.5h2.1
			c1.6,1.8,1.1,4.1,1.3,6.3C303.2,133.3,303.5,134.3,304,135z"/>
		<path class="st0" d="M365,201.9c-16.6,3.9-32.9,2.3-48.9-3.1c-2.8-0.9-2.5-3.1-2.5-5.2c0.1-3.3-1-7.9,0.6-9.5
			c2-1.9,5.9,1.3,8.9,2.2c10.3,3.2,21,4.7,31.8,4.6C359,193.9,363.6,196.5,365,201.9z"/>
		<path class="st0" d="M248,189.1c12-0.1,24,0,35.9-0.2c2.3,0,3,0.6,3.1,3c0.5,11,0.5,11-10.6,11c-13.8,0-27.6-0.1-41.4-0.2
			C237.6,196.5,242.8,192.8,248,189.1z"/>
		<path class="st0" d="M506.9,204.9h-35.8c0-12,0-23.9,0-35.9c4.8,1.3,7.6,4.8,9.6,9.2c-0.6,6.6-0.1,13.2-0.2,19.9
			c0,1.8,0.2,3.7-3.3,3.2c2.4,0.5,4.2-0.4,5.4,0.3c-2.8,0.4-2.1-2-2.1-3.8c0-5.8,0-11.6,0-17.4c0-1.2,0.5-2,1.8-1.4
			c1.5,0.7,2.8,1.8,3.9,3.1c6,6,12,12,18,18C505.4,201.3,507.5,202.4,506.9,204.9z"/>
		<path class="st0" d="M234.1,69.2c16.6-0.1,33.3-0.1,49.9-0.2c2.4,0,3,0.7,3.1,3.1c0.4,10,0.5,10-9.6,10c-10.5,0-21-0.1-31.4-0.2
			C241.1,78.5,236.3,75.1,234.1,69.2z"/>
		<path class="st0" d="M188.1,159c2.6-1.1,4-4.1,6.9-4.9c1.7-1.6,4-2.1,6-3.1l0,0c1.4-2.2,4.3-2.3,6-4.1l1-0.9
			c1.7,0.2,2.9-2.3,4.9-1c0.1,13.1,0.1,26.3,0.1,39.4c0,0.9,0.5,2.1-1,2.4c-2.4-0.9-4.1-2.7-5.8-4.5c-5.8-5.8-11.7-11.6-17.4-17.5
			c-1.4-1.4-3.1-2.5-3-4.8C186.4,159.3,186.9,158.4,188.1,159z"/>
		<path class="st0" d="M140.8,159c-2.9-0.8-4.2,1.6-5.7,3.1c-7.4,7.5-14.6,15.2-21.9,22.9c-0.1-11,0-21.9-0.2-32.9
			c0-2.4,0.7-3.2,3.1-3c2.8,0.3,5.7,0.4,8.5,0.1C132.8,148,138.2,151,140.8,159z"/>
		<path class="st0" d="M223,138.1c6.2-2.3,7-1.8,7,4.4c0,8.2,0,16.5,0,24.7c0,2,0.1,4-1,5.7c-0.5,2.4-3,3.5-4,5.6
			c-0.5,1-1.1,1.9-1.8,2.8c-2.5,1.2-3.6,4.7-7.1,4.5V142C217.6,139.2,219.7,137.6,223,138.1z"/>
		<path class="st0" d="M165,138.2c-0.3,3.2,2.3,5.1,4,7c4.4,4.9,9.3,9.2,14,13.8c0.5,0.5,0.8,1.3,0.6,2c-0.2,0.7-0.6,1.3-1.2,1.6
			c-1.5,0.8-3.4,0.6-4.4,2.2c0.1,4.4,4.1,6.8,5.4,10.6c-0.1,1.9,1.1,3.1,2.1,4.4c1,1.9,2.7,3.4,4.7,4.3c1,0.6,2,1.2,1.7,2.7
			c-7.2,1.6-11.9-1-15.5-7.6c-4.6-8.2-10.5-15.6-14.6-24c-1.5-5.1-2.3-10.1,0.2-15.1L165,138.2z"/>
		<path class="st0" d="M448.8,204.9c-6.8,0.1-6.9,0.1-6.8-6.5c0-10.1,0-20.3,0.1-30.4c1.8-1,3.1-0.8,3.3,1.2c0-1.4,0-3.3,0.1-5.1
			c-0.1-0.7-1,0.1-0.4,0c0.3-0.1,0.4,0,0.4,0.3c0,0.7,0.1,1.4-0.2,1.9c-1.3,1.8-2.7,1.5-4.1-0.1c-1.1-8.3-0.7-16.6-0.3-24.8
			c0.8-2.4,2.3-1.8,3.8-0.8c1.9,1.3,3.3,3.2,4.1,5.3L448.8,204.9z"/>
		<path class="st0" d="M183,175.9c-2.1-3-4.5-5.7-6.2-9c-0.6-1.2-1-2,0.1-2.9c1.7-0.5,3.4-1.2,5.1-2l1-0.9c0.4-0.6,1.2-0.9,1.9-0.6
			c8,7.6,15.7,15.6,23.6,23.4c0.8,0.8,1.9,1.4,1.6,2.9h-18l-2-1.8c-1.7-1.4-3.6-2.6-4.5-4.8C185.1,178.6,182.4,178.2,183,175.9z"/>
		<path class="st0" d="M141.2,153c4.9-0.4,8.5-3.7,9.9-9.1c3.4,5,6.5,10.3,9.1,15.8c1.1,7.9,1.6,15.8-0.3,23.6
			C153.2,173.5,147.1,163.3,141.2,153z"/>
		<path class="st0" d="M298,96c1.7,1.3,2.1,3.1,2.1,5.2c-0.1,7.2-0.1,14.4-0.1,21.7h-12c-3.2-1-6.6-1.9-7.8-5.6
			c-0.2-0.7-0.3-1.4-0.2-2.1c0-0.7,0.2-1.4,0.6-2c2.2-2.2,4.8-3.9,6.5-6.6c0.7-1.1,1.6-2.1,2.5-3c1.6-1.4,3.1-3,4.3-4.8
			c0.2-0.4,0.5-0.7,0.8-1.1c0.7-0.9,1.6-1.6,2.8-1.8L298,96z"/>
		<path class="st0" d="M442,85.2c7-0.3,7-0.3,7,6.4c0,11.8-0.1,23.6-0.2,35.4c-0.8,2.2-2.3,4-4.2,5.3c-1.5,1-3,1.7-3.6-1
			c-0.2-13.8,0-27.6-0.1-41.4C441,88.3,440.7,86.6,442,85.2z"/>
		<path class="st0" d="M471.1,167v-29.9c2.7-2,6.3-2,9.1-0.1c0.8,1.2,1.2,2.7,1.1,4.2c-0.1,10.7,0.3,21.4-0.2,32.1
			c-0.7,2.2-1.9,2.5-3.4,0.9C475.4,171.8,472.8,169.8,471.1,167z"/>
		<path class="st0" d="M442,85.2c0,15.9,0,31.8,0,47.7c0.6,0.6,1.5,0.9,2.3,0.8c1.6,0.1,3.2,0,4.4,1.2v2.1c-1.5,1.6-3.7,0.8-5.4,1.8
			c-0.5,0.4-0.9,0.8-1.4,1.2v26.8c-0.7,0.7-1.7,0.7-2.4,0c0,0-0.1-0.1-0.1-0.1c-1.9-3.6-1-7.5-1.1-11.3c-0.1-5.1-0.1-10.3,0-15.4
			c0-1.1,0.1-2.1-0.6-3h-55.1c-1.2-0.3-2.2-0.9-2.9-1.9l56.1-0.2c3.6,0.7,4.1-1.3,4-4.3c-0.1-15.1-0.1-30.3-0.1-45.4L442,85.2z"/>
		<path class="st0" d="M471.1,135v-29c1.2-3.1,3.7-5.3,6.2-7.3c1.2-0.9,3-2.2,3.1,1c-0.2,11.7,0.3,23.5-0.3,35.2
			C477.4,136.5,473.9,136.5,471.1,135z"/>
		<path class="st0" d="M452.1,148v-10.9c5-2.3,10.7-2.3,15.7,0v25.9C461.4,159.2,457,153.4,452.1,148z"/>
		<path class="st0" d="M452.1,135v-10c4.8-5.4,9.2-11.2,15.7-14.9c0,8.3,0,16.6,0,24.9C462.7,136.6,457.2,136.7,452.1,135z"/>
		<path class="st0" d="M262,135c-8.8,0-17.5,0-26.3,0c-1.9,0-4.6,0.5-2.7-3c0.1-0.2,0.3-0.4,0.4-0.6c1.9-1.6,4.2-2.4,6.3-3.7
			c5.9-2.4,12.2-0.3,18.2-1.5h13c1.2,3.9-2.8,3.7-4.3,5.5C265.3,132.9,263.7,134.1,262,135z"/>
		<path class="st0" d="M266.1,131c1.4-1.8,4.8-1.6,4.9-4.7l18-0.1c3.7,1.9,8.3,3.1,8,8.7l-32.9,0.1C263.5,133,265.5,132.4,266.1,131
			z"/>
		<path class="st0" d="M223,181l1-3c2.3-0.9,3.1-4,6-4v28.8h-2c-4.4-4-9.5-7.2-12-12.9l0.3-1.9C217.9,185.1,220.4,183,223,181z"/>
		<path class="st0" d="M245,154v2c-2.7,1.6-4.4,4.4-7,6c-0.1,1.9-1.9,2.6-2.8,4c0-7.6,0-15.3,0-22.9c5.7-1.1,11.5-0.3,17.2-0.5
			c1.7-0.1,2.5,0.8,1.6,2.5c-0.7,1-2.1,1.4-2,2.9C249.3,149.6,247.7,152.4,245,154z"/>
		<path class="st0" d="M256,117.9c2.5-2.6,6.8-1.8,9-4.9c1.7-0.5,3.4-1.2,5-2l1-0.9c0.6-0.8,1.7-1.2,2.7-0.8
			c2.5,1.2,4.3,3.5,4.9,6.2c0,2.7-2.2,3.9-3.8,5.6c-0.9,0.7-1.8,1.2-2.9,1.7l-21,0.1c-0.6-1.1,0.5-1.4,1-1.9l0,0
			C253.2,119.8,255.4,119.9,256,117.9z"/>
		<path class="st0" d="M162,111c0,6.3,0,12.7,0.1,19c0,1.8-0.6,3.7,1.1,5.1c-1.1,1.3-2.6,2.3-4.2,2.8c-1.2-1.4-2.8-0.9-4.2-0.9
			c-20.2,0-40.4,0-60.6,0v-2H157c3.1-5,1.3-10.3,1.3-15.5c-0.2-3,1.1-5.5,2.3-8.1C160.9,110.9,161.5,110.7,162,111
			C162,111,162,111,162,111z"/>
		<path class="st0" d="M471.1,104c0-5.3,0-10.6-0.2-15.9c-0.1-2.4,0.7-3.2,3.1-3.1c5.3,0.2,10.6,0.2,15.9,0.2
			c-0.2,2.5-2.1,3.4-3.8,4.6c-3.5,1.6-6.8-1.1-10.2-0.2c5.2-0.1,5.2,0,4.9,5.3C478.1,98.5,475.5,102.2,471.1,104z"/>
		<path class="st0" d="M354,142.8c-1-5,1.3-6.1,6-5.9c10.3,0.3,10.3,0.1,10,10.4c0,1.3,0.3,2.7-1,3.7L354,142.8z"/>
		<path class="st0" d="M282,85.2c-4.5,1.8-9.1,0.6-13.7,0.8c-5.4,0.2-10.9,0.1-17.4,0.1l21.1,22c0.3,0.9,0,1.3-1,1
			c-7-7.1-13.9-14.3-20.9-21.4c-1.4-1.5-11.3-2.3-13-1.3S236,89,236,90.4c0,10.8,0,21.6,0,32.5c-1.5-0.3-1-1.5-1-2.4
			c0-10.6,0-21.3-0.1-31.9c0-2.4,0.3-3.6,3.2-3.6C252.8,85.2,267.4,85.2,282,85.2z"/>
		<path class="st0" d="M109.9,188c0.9,15.7,0.9,15.7-14.8,14.8C98.9,196.8,103.9,191.8,109.9,188z"/>
		<path class="st0" d="M302.1,138.8c0.6-2.8,2.9-1.7,4.5-1.8c13.8-0.1,27.5,0.1,41.3-0.1c4.1-0.1,5.9,1.1,5.1,5.3
			c-9.8-5-20.3-2.8-30.6-3.1C315.6,138.8,308.8,138.9,302.1,138.8z"/>
		<path class="st0" d="M359,190.1l9.8-3.4c1-0.1,1.8,0.3,1.8,1.2c0.3,4.2,1.2,8.6-0.7,12.7l-1.7,0.4c-3.9,0.9-4.8-2.9-7-4.5
			c-1.3-1-2.5-2.2-3.5-3.5C355.8,191,357.5,190.6,359,190.1z"/>
		<path class="st0" d="M384,81.1c0.6,1.3,1.7,2.4,3.1,3c-0.3,1.3,0.9,3.8-2.3,2.6c-4.2-1.6-8.6-3-12.9-4.4c-2-3.2-1.3-6.6-0.9-10
			c1.3-2.7,2.5-0.9,3.7,0.1C377.9,75.2,380.5,78.6,384,81.1z"/>
		<path class="st0" d="M232.1,202.8v-14.1L246,189c-3,5.8-8.2,9.6-13,13.8l-0.5,0.1L232.1,202.8z"/>
		<path class="st0" d="M334.9,96.9c1.8-8,7.8-12.4,17.1-12.8c0.4,2.1-1.4,2.8-2.5,3.9c-4.5,4.6-8.9,9.2-13.9,13.8
			C334.4,100.4,334.1,98.5,334.9,96.9z"/>
		<path class="st0" d="M343.6,187.1l6.3-0.4L309,145c2.3-1,2.7,1.3,3.7,2.3c12.3,12.1,24.5,24.3,36.6,36.6c2,2,4.1,3.3,6.9,3.2
			C352.1,188.2,347.8,188.2,343.6,187.1z"/>
		<path class="st0" d="M209,195v2c-4.8,3.7-4.9,3.8-9.2-0.8c-1.7-1.8-4.4-3-4.7-6h17.9C213,192.8,210.5,193.5,209,195z"/>
		<path class="st0" d="M368,129c2.5-0.3,2-2.2,2-3.8c0-13.3,0-26.6-0.1-39.9L372,86c0,15,0,29.9,0,44.9
			C370.6,130.4,369,130.2,368,129z"/>
		<path class="st0" d="M212.9,137.1l-46-0.1l3.1-2.9c1.1,1.4,2.7,0.9,4.1,0.9c12.9,0,25.8,0,38.7,0L212.9,137.1z"/>
		<path class="st0" d="M370.1,133.9c-4.8,2.3-10,1.7-14.7,0.6c-2.6-0.6-1.8-4.8-0.4-7.5C360.2,129,365.4,130.9,370.1,133.9z"/>
		<path class="st0" d="M259,137.1c12.2,0,24.3-0.1,36.5-0.1c1.6,0,3.8-0.9,4.5,1.8h-41.9C257.5,137.8,258.4,137.6,259,137.1z"/>
		<path class="st0" d="M507.8,70.1c0.7,12.4,0.7,12.4-11.8,11.8C498.7,76.9,502.8,72.8,507.8,70.1z"/>
		<path class="st0" d="M232.1,82.3c0-4.1,0-8.1,0-12.2c5.1,2.7,9.2,6.9,11.9,11.9L232.1,82.3z"/>
		<path class="st0" d="M369.9,81.9l-7-1.1c-1.2-0.7-2.7,0.1-4.4-1.1c3-4,6.5-7.6,10.5-10.7c0.8-0.7,1.5,0.2,1.8,1
			C370.7,74,372,78.1,369.9,81.9z"/>
		<path class="st0" d="M216.2,80c-0.6-11.4-0.6-11.4,10.8-10.8C224.6,73.8,220.8,77.6,216.2,80z"/>
		<path class="st0" d="M162,111h-0.8c-2.6-4.7-1.7-10-2-15c2-7,0.2-14.1,1-21.1c0.8,0.1,1.5,0.2,1.9,1L162,111z"/>
		<path class="st0" d="M297,134.9c-1.1-4.3-5.4-5.7-8-8.7h10.9c0,2,0,4,0.1,6C300.1,134.4,299.1,135.1,297,134.9z"/>
		<path class="st0" d="M192.9,206.6c-1.5,0.6-2.9,1.4-4.3,2.3c-4.6,3.3-8.4,2.6-11.6-1.8c0-0.3,0-0.9,0.1-0.9
			C182.3,205.4,187.7,204.4,192.9,206.6z"/>
		<path class="st0" d="M372,158.7c4.7,6.5,4.7,14.2,0,20.6C370.4,172.5,370.4,165.4,372,158.7z"/>
		<path class="st0" d="M254,145.1c-0.2-2.5-2-2.1-3.6-2.1c-5.1,0-10.1,0-15.2,0.1c0.3-1.5,1.5-1.1,2.4-1.1c16.2,0,32.3,0.1,48.5,0.2
			c-8.3,1.9-16.8,0.4-25.2,0.8C258.2,143,255.9,143.3,254,145.1z"/>
		<path class="st0" d="M210,186.8c-7.1-7.2-14.2-14.4-21.3-21.7c-1.3-1.3-2.4-2.7-3.6-4.1c-0.3-1,0-1.4,1-1
			c7.4,7.6,14.8,15.2,22.3,22.8c1.3,1.3,2.5,2.7,3.7,4L210,186.8z"/>
		<path class="st0" d="M259,137.1l-1,1.7l-26,0.3c0.1-2.6,2-2.2,3.6-2.2C243.4,137,251.2,137.1,259,137.1z"/>
		<path class="st0" d="M258,126.2c-1.5,1.4-3.4,0.8-5.2,0.8c-4.7-0.2-9.4,0-13.8,2c-2.2,0.6-4.2,1.6-6,3l0,0c-1.9-1.8-0.7-4-1-6.1
			L258,126.2z"/>
		<path class="st0" d="M160,183.3c0.1-7.9,0.2-15.8,0.3-23.6c1,0.7,1.7,1.8,1.9,3l-0.3,23.5C160.9,185.5,160.2,184.5,160,183.3z"/>
		<path class="st0" d="M272,122.8l2-1.8c2.6-0.8,3.2-5.1,7-4c1.1,3.4,5.1,3.4,7,5.8L272,122.8z"/>
		<path class="st0" d="M372,158.7v20.6c-0.3,1.1-1.1,2-2.1,2.5v-25.7C371,156.6,371.8,157.5,372,158.7z"/>
		<path class="st0" d="M170.2,204.9c-9.5,0-8,1.1-8.1-7.9c0-1.1,0-2.3,0.1-3.4L170.2,204.9z"/>
		<path class="st0" d="M334.9,96.9c0.1,1.1,0.2,2.2,0.2,2.5L352,84.1h2c-4.8,6-10.7,10.9-15.9,16.4c-1.4,1.4-3,2.6-3.2,4.9
			C333.7,102.6,333.7,99.6,334.9,96.9z"/>
		<path class="st0" d="M353,122.1c-0.1-2.3-0.1-4.5,0.1-6.8c0.4-2.7-0.8-4.2-3-5.3c2.3-5.5,2.3-11.6,0-17.1c1.7-1.5,4.2-1.5,5.8,0
			c-0.4,5.7-1.8,11.5,1.1,17c-3.3,1-3.1,3.7-3,6.4c0.1,2.2,0,4.3,0.1,6.5L353,122.1z"/>
		<path class="st0" d="M350.1,159.9c2.2-0.8,3.5-3.1,3-5.4c-0.3-2.8-0.1-5.6-0.1-8.4c0.8-0.1,1.6,0.2,2.1,0.9
			c-1.4,4.5-2.5,8.9,0.9,13c-0.4,5.7-1.8,11.5,1.1,17c-1.4,1.6-3.3,0.8-5,0.9c-0.3-0.4-0.5-0.9-0.5-1.4
			C351.3,170.9,352.7,165.3,350.1,159.9z"/>
		<path class="st0" d="M212.9,86.1c-6.6,5.9-12.9,12.2-18.8,18.8c-0.4,0.6-1.2,0.7-1.8,0.3c-0.1-0.1-0.2-0.2-0.3-0.3l20.9-20.8V86.1
			z"/>
		<path class="st0" d="M302.1,133.9c0-2.6,0-5.2,0-7.8h7.9C308.6,129.8,305.7,132.6,302.1,133.9z"/>
		<path class="st0" d="M94.2,70.1l15.6,15c0.6,0.4,0.6,1.2,0.2,1.8c-0.1,0.1-0.1,0.2-0.2,0.2l-15.7-15L94.2,70.1z"/>
		<path class="st0" d="M467.8,110.1L452.1,125c0-0.7,0-1.3,0-2l15.7-15V110.1z"/>
		<path class="st0" d="M109.9,188c-5.2,4.6-10.2,9.6-14.8,14.8c-1.4-0.1-1-1.1-0.9-1.9l15.7-14.9L109.9,188z"/>
		<path class="st0" d="M452.1,148l15.7,14.9c0,0.7,0,1.4,0,2L452.1,150C452.1,149.4,452.1,148.7,452.1,148z"/>
		<path class="st0" d="M452.1,135h15.7v2.1h-15.7V135z"/>
		<path class="st0" d="M369.9,200.7c-0.5-4.6,1.4-9.4-1.1-13.9l3.1-2l0.2,15L369.9,200.7z"/>
		<path class="st0" d="M162.1,140.1l-0.2,15.1l-2.8-4.2c-0.1-3.1-0.8-6.1-0.3-9.2L162.1,140.1z"/>
		<path class="st0" d="M158.8,141.8c2.1,3,1.8,6.1,0.3,9.2c-0.7-1.3-1.5-2.5-2.3-3.7C154.3,144.2,155.2,142.6,158.8,141.8z"/>
		<path class="st0" d="M195.1,190.1c1.3,1.5,2.6,2.9,3.9,4.4c2.8,3.1,5.5,6.6,10,2.5c-4.2,5.3-4.2,5.3-8.9,0.6
			c-2.4-2.4-4.8-5-7.1-7.5L195.1,190.1z"/>
		<path class="st0" d="M369.8,69.1l-10.6,10.1l3.8,1.7c-2,0.3-4.1,0-6-0.7l11-12l2,0.2c0.2,0.2,0.3,0.4,0.2,0.6
			S369.9,69.1,369.8,69.1z"/>
		<path class="st0" d="M369.8,69.1c0-0.3,0.1-0.6,0.1-0.8c1,0,2.1-0.3,3,0.6c0.2,0,0.3,0.2,0.3,0.4c0,0,0,0.1,0,0.1
			c-0.8,0.3-0.4,1.4-1.1,1.7c0,3.7-0.1,7.4-0.1,11.1l-2-0.3L369.8,69.1z"/>
		<path class="st0" d="M233,202.8c4.3-4.6,8.7-9.2,13-13.8l2,0.1l-12.9,13.7L233,202.8z"/>
		<path class="st0" d="M442,138c2-1.9,4.5-0.6,6.8-0.9v6.9C445.4,143.2,444,140.3,442,138z"/>
		<path class="st0" d="M359,190.1c-0.3,0.8-2.2,1.1-1,2.2c3.4,3,5.5,7.4,10.2,8.7c-0.9,0.9-2.1,0.9-3.3,0.8l-10-11
			C356.2,190.2,357.6,189.9,359,190.1z"/>
		<path class="st0" d="M507.8,70.1c-4.2,3.6-8.1,7.6-11.8,11.8h-2l12-12.7C506.7,69.1,507.7,68.7,507.8,70.1z"/>
		<path class="st0" d="M192.1,106.1c-3.7,4.3-7.7,8.3-12.1,11.9c0-1.8,0-3.6,1-5.1c3,2.8,2.8-1.1,4-1.9l0.2-0.7c1.2-2,2.9-3.6,5-4.6
			C190.9,105.6,191.6,105.4,192.1,106.1z"/>
		<path class="st0" d="M439.9,81.9V69.2h2.1v12.7H439.9z"/>
		<path class="st0" d="M331.8,107.1c-4.2,3.9-8.5,7.6-12,12.3c-0.4-0.7-0.8-1.4-1.2-2.2c4.7-3.6,8.9-7.8,12.5-12.4
			C331.3,105.5,331.5,106.3,331.8,107.1z"/>
		<path class="st0" d="M244,82c-3.6-4.3-7.6-8.3-11.9-11.9c0-0.3,0-0.6,0-0.9h2L246,81.9L244,82z"/>
		<path class="st0" d="M216,189.8l12,12.9h-2L215,191c-0.4-0.2-0.5-0.4-0.3-0.6s0.2-0.3,0.4-0.3C215.3,190,215.7,189.9,216,189.8z"
			/>
		<path class="st0" d="M216.2,80c3.9-3.3,7.5-6.9,10.8-10.8h2L216.2,82C216.2,81.4,216.2,80.7,216.2,80z"/>
		<path class="st0" d="M150.1,68c2.5-1.9,5.4-0.8,8.1-0.8c2.5,0,1.7,2.3,1.9,3.8L150.1,68z"/>
		<path class="st0" d="M192.9,206.6c-5.4-1-10.7-1.6-16,0.4c-1.1-0.3-1.5-1.2-1.9-2.1l20.3,0.1L192.9,206.6z"/>
		<path class="st0" d="M223,138.1l-6.8,3.9c0-1.6,0-3.3,0-4.9C218.4,137.4,221,136,223,138.1z"/>
		<path class="st0" d="M448.8,135H443c0.6-2.9,2.9-5.2,5.8-5.9V135z"/>
		<path class="st0" d="M302.1,133.9c3-2.2,5.6-4.8,7.9-7.8h2l-8,8.8C303.2,135,302.4,134.9,302.1,133.9z"/>
		<path class="st0" d="M471.1,104l8.7-8c0.6,0.4,0.7,1.2,0.3,1.8c-0.1,0.1-0.2,0.2-0.3,0.3l-8.7,8V104z"/>
		<path class="st0" d="M471.1,135h8.8c0.6,0.6,0.6,1.5,0.1,2.1c0,0-0.1,0.1-0.1,0.1h-8.8V135z"/>
		<path class="st0" d="M471.1,167l8.7,8c0.6,0.5,0.6,1.3,0.2,1.9c0,0.1-0.1,0.1-0.2,0.2l-8.7-8C471.1,168.3,471.1,167.7,471.1,167z"
			/>
		<path class="st0" d="M448.8,129c-2.3,1.6-4.2,3.7-5.8,6c-0.9-0.4-1-1.2-1-2l6.7-5.9L448.8,129z"/>
		<path class="st0" d="M442,138l6.8,6v2l-6.7-5.9C442,139.4,442,138.7,442,138z"/>
		<path class="st0" d="M223,181c-1.9,2.6-4.2,5-6.8,7l-0.1-2.1C218.8,184.8,219.7,181.2,223,181z"/>
		<path class="st0" d="M215,190.1c0,0.3,0,0.6,0,0.9c-2.3,0.8-3.1,4-6,4l3.9-4.8L215,190.1z"/>
		<path class="st0" d="M486.9,89.1l3-3.9h2c-1.3,1.9-3,3.6-5,4.8c-0.2-0.2-0.3-0.4-0.2-0.6S486.9,89.1,486.9,89.1z"/>
		<path class="st0" d="M212.9,145c-1.8-0.4-2.9,2.2-4.9,1l4.9-3C212.9,143.7,212.9,144.3,212.9,145z"/>
		<path class="st0" d="M296,142.1c-1,1.6-2.4,2.9-4,3.8c-0.1-1.7,1.3-2.6,2-3.8L296,142.1z"/>
		<path class="st0" d="M252,121l-1,1.9h-3.1C249,121.8,250.5,121.1,252,121z"/>
		<path class="st0" d="M204.6,47.9c-2.3,0-4.4-0.1-6-1.5c-1.8-1.5-1.4-3.3-0.1-4.9c1.5-1.9,11-2.2,12.9-0.5s1.4,3.3-0.1,4.7
			C209.4,47.6,206.8,47.7,204.6,47.9z"/>
		<path class="st0" d="M209.6,22.1c-0.1,3.6-1.6,5.6-4.9,5.5s-4.8-2-4.8-5.2c0-3.3,1.5-5.4,5.1-5.3
			C208.5,17.2,209.4,19.6,209.6,22.1z"/>
		<path class="st0" d="M110.9,27.4c0,6-2.1,8.7-6.5,8.7c-4.1,0-6.3-3.2-6.3-9s2.4-9,6.4-9C108.8,18.1,110.9,21.2,110.9,27.4z"/>
		<path class="st0" d="M305.1,256.1c-2.5,0.1-4.4-0.9-4.2-3.6c0.3-5.4,4.9-4.3,8.2-5c2.1-0.4,2.6,0.8,2.4,2.6
			C311.1,253.9,309,256,305.1,256.1z"/>
		<path class="st0" d="M149.6,27.8c1.6-0.4,3.2-0.5,3,2.1c-0.3,3.8-2.1,6.2-6.1,6.4c-2.4,0.1-4.5-0.5-4.5-3.3
			C141.9,27.8,145.9,28.2,149.6,27.8z"/>
		<path class="st0" d="M454.1,246.8c0,6.1-2.2,9.2-6.6,9.1c-4.2-0.1-6.5-3.2-6.5-8.9c0-6,2.3-9.2,6.7-9.1S454.1,241,454.1,246.8z"/>
		<path class="st0" d="M240.2,27c0.1,6.1-2.3,9.2-6.6,9.1c-4.2-0.1-6.5-3.2-6.5-8.9c-0.1-6,2.3-9.2,6.7-9.1S240.1,21.1,240.2,27z"/>
		<path class="st0" d="M380.4,244.6c-2-1.5-5.5,1.2-5.7-2.1c-0.2-3.1,2.5-4.8,5.8-4.8c3.1,0.1,5.5,1.8,5.2,4.7
			C385.3,246.3,381.7,242.6,380.4,244.6z"/>
		<path class="st0" d="M481,137.1c8.3,0,16.6,0,24.9-0.1c2.5,0,4,0.3,4,3.4c-0.1,20.6,0,41.2,0,61.8c0,1,0,2-1,2.6
			c-9.7-8.4-18.1-18-27.4-26.8c-0.8-0.8-1.2-2-1.1-3.2c0-11,0-22,0-33C480.5,140.3,480,138.6,481,137.1z"/>
		<path class="st0" d="M481,137.1c0,13.3,0,26.6,0,39.9c0.5,0.6,0.5,1.5,0,2.1c0,5.5,0.1,10.9-0.2,16.4c-0.2,4,0.4,6.6,5.1,6.3H476
			c3.1-0.4,4.2-2,4-5.3c-0.4-6.4-0.2-12.9-0.2-19.3c0-0.7,0-1.4,0-2.1c0-12.6,0-25.2,0-37.8v-2.2c0-12.3,0-24.6,0-36.8V96
			c0.3-3.1,1.1-6.5-3.9-6.9h11c0,0.3,0,0.6,0,0.9l0,0c-0.5,0.4-1.1,0.7-1.8,0.9c-1.8,0-3.2,1.4-3.2,3.1c0,0,0,0.1,0,0.1
			c-0.2,0.6-0.5,1.3-0.8,1.9c0,13,0,25.9,0,38.9L481,137.1z"/>
		<path class="st0" d="M481.1,179c0-0.7,0-1.4,0-2.1c9.6,9,19,18.3,27.9,27.9h-2.1C498.7,195.9,490,187.3,481.1,179z"/>
		<path class="st0" d="M297.1,89l1.9-2c0.9,3.1,2.9,6.4-1,9l0,0c-1-0.4-1.7-1.4-1.5-2.5C296,92,296.2,90.3,297.1,89z"/>
		<path class="st0" d="M304,88.1l0.9,0.9c1.1,1.5,1.1,3.5,0.1,5c0.1,0.8-0.3,1.6-0.9,2C301.1,93.5,301.1,90.6,304,88.1z"/>
		<path class="st0" d="M439.9,166.9h2.2c4.5,0.7,2-3.5,3.7-5.3v10.7c-1.3-1.6-0.2-5.1-3.7-4.2h-2.2l-30.9,0.1
			c-2.9,0.9-5.8,1.6-7,4.8c-2.1-3.5-0.4-7.3-0.7-11.2c0.2,8.1,5.9,4.7,9.7,5.1c1.3-1,3-1.5,4.6-1.4c6.6-0.1,13.1-0.1,19.7,0
			C436.9,165.3,438.6,165.8,439.9,166.9z"/>
		<path class="st0" d="M401.9,173c-1-6.5,3.5-4.9,7-4.8L403,173H401.9z"/>
		<path class="st0" d="M280.2,158c0,6.1,0.1,12.3-0.2,18.4c-0.2,3.9,0.2,6.7,5.1,6.3h-10c3.1-0.4,4.3-2,4-5.3
			c-0.4-5.8-0.2-11.6-0.3-17.4c0-3.1,0.1-6.3,0.2-9.4c0.1-2.8,0.4-5.8-4-5.3H285c-1.3,1.7-4.2-0.3-4.8,1.9c-0.5,1.7-0.2,3.6-0.2,5.4
			S280.1,156.2,280.2,158z"/>
		<path class="st0" d="M238,162c2-2.3,3.5-5.3,7-6C243,158.3,241.5,161.3,238,162z"/>
		<path class="st0" d="M245,154c2-2.3,3.5-5.3,7-6C250,150.4,248.5,153.3,245,154z"/>
		<path class="st0" d="M484.9,90.2l2-0.2c-1.6,2.3-3.5,4.4-5.9,6v-2C481.7,92.2,483.1,90.8,484.9,90.2z"/>
		<path class="st0" d="M357,177c-1.3-0.1-2.9,0.1-2.9-1.8c-0.1-4.6,0-9.2,0-13.8c0-0.9,1-1.2,1.8-1.4h1.1c1.8,1.2,3.3,2.6,4.4,4.4
			c1.2,2.5,1.7,4.9,0.2,7.4C360.8,174.2,358.8,175.6,357,177L357,177z"/>
		<path class="st0" d="M350.1,159.9c1.1,0.1,2.8-0.1,2.7,1.5c-0.1,5.2,1.2,10.5-0.8,15.6c-4.3-0.4-6.3-3.4-7.5-7.1
			c-0.3-1.9,0.1-3.9,1-5.6c0.9-1.6,2.6-2.7,3.4-4.4L350.1,159.9z"/>
		<path class="st0" d="M345,170c1.2,3.2,3.8,5.8,7,7c0,0.3,0,0.6,0,0.9c-4.5-0.8-7.1-3.5-8-7.9C344.4,169.5,344.7,169.5,345,170z"/>
		<path class="st0" d="M361.1,171.9c1.6-2.7,0.5-5.3-0.1-8c0.3-0.4,0.6-0.4,0.8,0c1.3,2.6,2,5.3,0.1,7.9
			C361.6,172.5,361.4,172.4,361.1,171.9z"/>
		<path class="st0" d="M361.1,171.9c0.3,0,0.5,0,0.8,0c-0.3,2.6-2.4,4.7-5,5L361.1,171.9z"/>
		<path class="st0" d="M361.9,164H361c-1.7-0.9-3.1-2.3-4-4C359.5,160.3,360.8,162,361.9,164z"/>
		<path class="st0" d="M345,170h-1c-0.1-2.1-0.2-4.1,1.1-5.9c0.3-0.4,0.5-0.4,0.9,0L345,170z"/>
		<path class="st0" d="M346,164h-0.9c0.8-1.7,2.1-3.1,3.9-4C348.9,162.1,347.5,163.1,346,164z"/>
		<path class="st0" d="M192.1,106.1H190c-2.6,0.7-4,2.6-5,4.9v-0.1c-2.1-3.5-0.4-7.3-0.6-11.2c-0.2,6.3,3.8,5.6,7.6,5.2h2.1
			c2.8,0,5.6,0,8.4,0.2c3.8,0.3,7,0.1,6.3-5.1v10c-0.4-3.6-2.6-4.2-5.8-4C199.4,106.3,195.7,106.1,192.1,106.1z"/>
		<path class="st0" d="M109.9,87.1v-2c0.4-1.2-0.4-3.1,2.1-3c10.9,0.3,21.9-0.8,32.6,2.3c6.4,1.8,11.7,5.4,14.6,11.7
			c2.1,4.8,2,9.9,2,15c-0.7,2.7-1.4,5.4-2.1,8c-0.7,5-3.1,8.5-8.1,9.9c-12.4,6.3-25.9,4.5-39.1,5c-2.9,0.1-1.8-2.2-1.8-3.6
			C110,115.9,110,101.5,109.9,87.1z"/>
		<path class="st0" d="M151,129c3.5-2.6,6.2-6,8.1-9.9c1.9,4.6,0.6,9.4,0.8,14.1c0.1,1.9-1.6,1.7-2.9,1.7
			C156.4,131.5,153.6,130.3,151,129z"/>
		<path class="st0" d="M439.9,166.9l-28.9-0.1c2.1-5.4,7-8.2,11-11.8c5-5.9,10.8-11.1,16.2-16.6c0.4-0.5,1.2-0.7,1.8-0.4
			C439.9,147.7,439.9,157.3,439.9,166.9z"/>
		<path class="st0" d="M439.9,138.1L422,155c1.1-4.1,4.9-6,7.5-8.9c2.7-3.1,5.6-6,8.5-9C438.7,137,439.5,137.1,439.9,138.1z"/>
		<path class="st0" d="M271,109l1-1l4.1-1.1c0.5,1.8-0.5,2.6-2.1,3.1l-3,0.2L271,109z"/>
		<path class="st0" d="M270,111c-1.5,1.2-2.8,2.8-5,2C266.2,111.6,268.1,110.8,270,111z"/>
		<path class="st0" d="M256,117.9c0.1,2.9-2.3,2.5-4,3.1C252.7,119.2,254.6,118.9,256,117.9z"/>
		<path class="st0" d="M350.1,93c6.1,2.4,1.8,7.5,2.7,11.3c0.5,1.9,1.9,5.7-2.7,5.8L349,110c-0.7-1.5-2.3-2.4-3-4v-1
			c-2.6-2.3-1.5-4.9-0.5-7.4c0.8-1.7,2.6-2.7,3.5-4.5L350.1,93z"/>
		<path class="st0" d="M357,110c-1.3-0.1-2.9,0.1-2.9-1.8c-0.1-4.6,0-9.2,0-13.8c0-0.9,1-1.2,1.8-1.4h1.1c1.8,1.1,3.3,2.6,4.4,4.4
			c1.2,2.4,1.7,4.9,0.2,7.4C360.8,107.2,358.8,108.5,357,110L357,110z"/>
		<path class="st0" d="M346,97c-0.6,2.6-1.8,5.3,0,7.9c-3.9-2.2-1.8-5.1-0.8-7.9C345.4,96.6,345.6,96.6,346,97z"/>
		<path class="st0" d="M361.1,105c1.6-2.7,0.5-5.3-0.1-8c0.3-0.4,0.6-0.4,0.8,0c1.3,2.6,2,5.3,0.1,7.9
			C361.6,105.5,361.4,105.5,361.1,105z"/>
		<path class="st0" d="M361.1,105h0.8c-0.3,2.6-2.4,4.7-5,5L361.1,105z"/>
		<path class="st0" d="M361.9,97.1L361,97c-1.7-0.9-3.1-2.3-4-4C359.5,93.3,360.8,95.1,361.9,97.1z"/>
		<path class="st0" d="M346,106c1.5,1,3,2,3,4C347.7,108.8,345.3,108.5,346,106z"/>
		<path class="st0" d="M346,97h-0.9c0.8-1.7,2.2-3.1,3.9-4C348.9,95.1,347.5,96.2,346,97z"/>
		<path class="st0" d="M274,110l2.1-3.1l0.9-0.9c1.9-0.3,3.3-1.6,5.1-2l7.9-6c1.5,0.9,2.6-1.1,4.1-0.6c0.4,0.1,0.7,0.4,0.9,0.8
			c0,0.3,0,0.6,0,0.8c-2,1.4-3.9,2.8-5,5.1L288,107c-2.7,1.6-4.4,4.4-7,6v2c-0.8,1-1.5,2.1-3,1L274,110z"/>
		<path class="st0" d="M295,98.2l-1-0.2c-0.5-0.4-0.6-1.2-0.2-1.7c0.1-0.1,0.1-0.1,0.2-0.2c0.7-0.7,1.4-1.4,2-2
			c0.3-0.5,0.6-0.5,0.9,0l1.1,2L295,98.2z"/>
		<path class="st0" d="M282.1,104c-1.5,1.2-2.8,2.8-5.1,2C278.5,104.9,279.8,103.2,282.1,104z"/>
		<path class="st0" d="M297,94h-1c-1.3-2-0.8-3.7,1.1-5L297,94z"/>
		<path class="st0" d="M294,96.1c0,0.6,0,1.3,0,1.9c-1.4-0.3-2.7,2-4.1,0L294,96.1z"/>
		<path class="st0" d="M372,71.1c0-0.8,0.1-1.6,1.1-1.7L384,81.1C378.7,79.3,376.6,73.7,372,71.1z"/>
		<path class="st0" d="M305,94c0-1.7-0.1-3.3-0.1-5C306.5,90.6,308.1,92.3,305,94z"/>
		<path class="st0" d="M207.1,146.9c-1.1,2.6-4,2.8-6,4.1C201.9,147.9,204.8,147.8,207.1,146.9z"/>
		<path class="st0" d="M201,151c-1.7,1.6-3.8,2.6-6,3.1C196.3,151.7,198.5,151,201,151z"/>
		<path class="st0" d="M186.1,160l-1,1l-2,0.1c0-0.7,0-1.4,0-2.1c1.7,0.8,3.4-1.9,5,0L186.1,160z"/>
		<path class="st0" d="M230,174c-2.3,0.8-3.1,4-6,4c1.3-2,3-3.7,5-5C229.3,173.3,229.7,173.7,230,174z"/>
		<path class="st0" d="M266.1,131c0,1.7-1.5,2.6-2,4H262C263,133.3,264.4,131.9,266.1,131z"/>
		<path class="st0" d="M185.9,180l4.1,5c-2.9-0.4-4.4-2.3-5-5C185.3,179.6,185.6,179.6,185.9,180z"/>
		<path class="st0" d="M185.9,180H185c-1.1-1.1-3.9-1.4-2-4L185.9,180z"/>
		<path class="st0" d="M182.1,162c-1.5,1.2-2.8,2.8-5.1,2C178.2,162.5,180.1,161.8,182.1,162z"/>
		<path class="st0" d="M281,113c2-2.3,3.5-5.3,7-6C286,109.4,284.5,112.4,281,113z"/>
		<path class="st0" d="M278,116l3-1c0,0.7,0,1.3,0,2c-3.1-0.1-3.8,4.1-7,4L278,116z"/>
		<path class="st0" d="M290,104.1c0.1-3.2,2.4-4.3,5-5.1C293.7,101.1,292,102.8,290,104.1z"/>
		<path class="st0" d="M233,132c1.5-2.1,3.3-3.4,6-3C237.4,130.6,235.3,131.6,233,132z"/>
		<path class="st0" d="M185,111c-0.4-3.8,0.7-5.9,5-4.9C188.8,108.1,187,109.8,185,111z"/>
		<path class="st0" d="M484.9,90.2c-0.9,1.6-2.2,2.9-3.8,3.8C480.4,90.8,481.7,89.5,484.9,90.2z"/>
		<path class="st0" d="M148,126.7c-7.2,4.2-15.2,3.9-23.2,4.1c-11.8,0.3-11.8,0.2-11.8-11.4c0-9.4,0.1-18.9,0.2-28.3
			c0.8-0.3,1.7-0.1,2.3,0.5c7.3,7.2,15.1,13.8,21.4,22c1.3,3.5-0.6,7.4,1.5,10.8c2.1,0.7,3.8-0.7,5.7-1c0.5-0.1,1-0.1,1.5-0.1
			C147.4,123.7,149.1,124.2,148,126.7z"/>
		<path class="st0" d="M148,126.7c0-1.5-1.3-2.8-2.8-2.7c-0.1,0-0.1,0-0.2,0c-0.2-0.2-0.3-0.5-0.3-0.8c0-0.3,0.1-0.4,0.1-0.4
			c1.8-1.9,4.2-3.3,5.2-5.9c0.4-0.8,0.8-1.5,1.3-2.3c1-1.3,1.5-2.9,1.5-4.6c0-1.3-0.3-2.5-0.3-3.8c0.3-1.5-0.1-3.1-1.1-4.3
			c-0.9-0.8-0.1-2.3-1.2-3.1c-1.5-2.1-3.1-4-5.7-4.9c-1.8-0.7-3.5-1.7-5.5-1.8c-3,4.4-2.2,8.8-0.2,13.2c2.4,2.2,2.5,4.3-0.2,6.3
			c-0.7,0.3-1.5,0.4-2.2,0.3c-8.5-6.8-15.9-14.7-23.1-22.9c-0.6-2.7-0.3-4.2,3.3-4.1c8.8,0.4,17.6-0.3,26.2,2
			c8.3,2.2,14.1,6.9,15.1,15.8C159,112.3,157.8,121.4,148,126.7z"/>
		<path class="st0" d="M113.2,89l22.8,22c0.5,0.6,0.5,1.4-0.1,2c0,0,0,0,0,0l-22.8-22L113.2,89z"/>
		<path class="st0" d="M145,123.1c0,0.3,0,0.6,0,0.9h-1c-2.1,0.7-4.3,1.1-6.4,1.3c-2.1-4.1-0.5-8.5-0.9-12.8c0.5-0.9,1.6-1.1,2-0.3
			c1.8,3.6,5.6,5.3,7.8,8.5C146.3,121.7,145.8,122.5,145,123.1z"/>
		<path class="st0" d="M138,112c-1.6,4.2-1.6,8.8,0,13c0.4,0.2,0.5,0.4,0.3,0.6s-0.2,0.3-0.4,0.3c-2.2-0.1-2-1.7-2-3.2
			c0-3.2,0-6.5-0.1-9.7l0.1-2l2-0.1c0.3,0.2,0.3,0.7,0.1,1C138.1,111.9,138,112,138,112z"/>
		<path class="st0" d="M138,126c0-0.3,0-0.6,0-0.9c1.8-1.2,3.9-1.1,6-1C142.3,125.4,140.2,126.1,138,126z"/>
		<path class="st0" d="M138,112l0.1-1c1.9-1.6,2.2-3.2,0-4.8c-3-4.7-1.2-9.8-1.1-14.8c0-0.9,1.2-0.8,2-0.3c2.3-0.2,4,1.1,5.9,2
			c2.4,1.6,4.5,3.7,6.2,6l0.7,1.9c0.6,1.6,2.1,3.1,1.1,5.1c0.8,1.2,1.1,2.6,1,4c-0.9,1.6-1.2,3.5-2,5.1l-1,1.7
			c-1.5,1.6-2.1,4.2-5,4.1C142.5,118.8,138.8,116.7,138,112z"/>
		<path class="st0" d="M139,91c-1.1,0.2-2,0.6-1.9,1.8c0.3,4.4-1,9,1,13.2c-1.2,0-2.1-1-2-2.2c0,0,0-0.1,0-0.1c0-3.8-0.1-7.6,0-11.3
			C136.1,90.3,136.9,89.2,139,91z"/>
		<path class="st0" d="M146.1,121l5-4.1c-0.7,3.3-2.9,5.2-6,6.3C144.9,122.3,145.3,121.5,146.1,121z"/>
		<path class="st0" d="M151.2,99.1c-2.4-1.6-4.5-3.7-6.2-6.1C148.3,93.8,150.2,96,151.2,99.1z"/>
		<path class="st0" d="M152,115.2c0-2,0.3-3.8,2-5.1C154.2,112,153.4,113.9,152,115.2z"/>
		<path class="st0" d="M153,106c-0.4-1.7-0.8-3.4-1.1-5.1C153.3,102.4,155.1,103.8,153,106z"/>
	</g>
</g>
</svg>
