<svg xmlns="http://www.w3.org/2000/svg" viewBox="0 0 215.61 154.7"><defs><style>.cls-1{fill:#fff;}</style></defs><g id="Layer_2" data-name="Layer 2"><g id="Layer_1-2" data-name="Layer 1"><path class="cls-1" d="M213.51,58.5c-.6-.5-6-4.6-17.6-4.6a55.94,55.94,0,0,0-9.1.8c-2.2-15.3-14.9-22.7-15.4-23.1l-3.1-1.8-2,2.9a42.76,42.76,0,0,0-5.5,12.8,30.39,30.39,0,0,0,3.6,23.9c-5.3,3-13.9,3.7-15.7,3.8H6.71A6.7,6.7,0,0,0,0,79.9a101.19,101.19,0,0,0,6.2,36.5c4.9,12.8,12.2,22.3,21.6,28.1,10.6,6.5,27.9,10.2,47.4,10.2a145.38,145.38,0,0,0,26.3-2.4,108.54,108.54,0,0,0,34.4-12.5,94.16,94.16,0,0,0,23.4-19.2c11.3-12.7,18-26.9,22.9-39.5h2c12.3,0,19.9-4.9,24.1-9.1a26.63,26.63,0,0,0,6.4-9.4l.9-2.6Z"/><path class="cls-1" d="M19.91,69.1h19a1.69,1.69,0,0,0,1.7-1.7v-17a1.69,1.69,0,0,0-1.7-1.7h-19a1.69,1.69,0,0,0-1.7,1.7v17A1.75,1.75,0,0,0,19.91,69.1Zm26.2,0h19a1.69,1.69,0,0,0,1.7-1.7v-17a1.69,1.69,0,0,0-1.7-1.7h-19a1.69,1.69,0,0,0-1.7,1.7v17a1.75,1.75,0,0,0,1.7,1.7m26.7,0h19a1.69,1.69,0,0,0,1.7-1.7v-17a1.69,1.69,0,0,0-1.7-1.7h-19a1.69,1.69,0,0,0-1.7,1.7v17A1.63,1.63,0,0,0,72.81,69.1Zm26.3,0h19a1.69,1.69,0,0,0,1.7-1.7v-17a1.69,1.69,0,0,0-1.7-1.7h-19a1.69,1.69,0,0,0-1.7,1.7v17A1.69,1.69,0,0,0,99.11,69.1Zm-53-24.3h19a1.75,1.75,0,0,0,1.7-1.7v-17a1.69,1.69,0,0,0-1.7-1.7h-19a1.69,1.69,0,0,0-1.7,1.7v17a1.83,1.83,0,0,0,1.7,1.7m26.7,0h19a1.75,1.75,0,0,0,1.7-1.7v-17a1.69,1.69,0,0,0-1.7-1.7h-19a1.69,1.69,0,0,0-1.7,1.7v17a1.69,1.69,0,0,0,1.7,1.7m26.3,0h19a1.75,1.75,0,0,0,1.7-1.7v-17a1.75,1.75,0,0,0-1.7-1.7h-19a1.69,1.69,0,0,0-1.7,1.7v17a1.75,1.75,0,0,0,1.7,1.7m0-24.4h19a1.69,1.69,0,0,0,1.7-1.7V1.7a1.75,1.75,0,0,0-1.7-1.7h-19a1.69,1.69,0,0,0-1.7,1.7v17a1.75,1.75,0,0,0,1.7,1.7m26.5,48.7h19a1.69,1.69,0,0,0,1.7-1.7v-17a1.69,1.69,0,0,0-1.7-1.7h-19a1.69,1.69,0,0,0-1.7,1.7v17a1.75,1.75,0,0,0,1.7,1.7"/></g></g></svg>