<?xml version="1.0" encoding="utf-8"?>
<!-- Generator: Adobe Illustrator 26.0.2, SVG Export Plug-In . SVG Version: 6.00 Build 0)  -->
<svg version="1.1" id="logo-javascript" xmlns="http://www.w3.org/2000/svg" xmlns:xlink="http://www.w3.org/1999/xlink" x="0px"
	 y="0px" viewBox="0 0 68.9 68.9" style="enable-background:new 0 0 68.9 68.9;" xml:space="preserve">
<style type="text/css">
	.st0{fill:#FFFFFF;}
</style>
<path class="st0" d="M0,0v68.9h68.9V0H0z M36.3,59c-1.1,2-3,3.5-5.2,4.1c-3.1,0.8-6.4,0.4-9.2-1.1c-1.7-1.1-3-2.6-3.8-4.4
	c1.7-1.1,3.5-2.1,5.2-3.2c0.1,0.2,0.3,0.4,0.4,0.6c0.5,1.1,1.3,1.9,2.4,2.5c1.1,0.4,3.6,0.6,4.5-1.3c0.6-1,0.4-4.2,0.4-7.8
	c0-5.6,0-11.1,0-16.7h6.4v0c0,5.9,0,11.8,0,17.8C37.5,53.1,37.8,56.3,36.3,59z M63.1,57.2c-2.2,7.7-14.7,7.9-19.7,2.9
	c-1-0.9-1.8-2-2.3-3.2c2.7-1.5,2.7-1.5,5.2-3c1.4,2.2,2.7,3.3,5,3.8c3.2,0.4,6.3-0.7,5.6-4.1c-0.7-2.8-6.5-3.4-10.4-6.3
	c-0.1-0.1-0.1-0.1-0.2-0.2c-3.9-3.1-4.5-8.8-1.4-12.7c1.3-1.5,3-2.5,4.9-2.9c0.7-0.1,1.4-0.2,2-0.3c3.9-0.1,6.3,0.9,8.1,2.9
	c0.6,0.7,1.2,1.4,1.7,2.2c-2.1,1.3-2.1,1.3-5,3.2c-0.5-1.2-1.5-2.2-2.8-2.6c-1.7-0.5-3.9,0-4.4,1.9c-0.2,0.7-0.1,1.4,0.1,2
	c0.7,1.6,3.1,2.3,5.2,3.3c6.1,2.5,8.1,5.1,8.6,8.3C63.6,54.1,63.6,55.7,63.1,57.2z"/>
</svg>
