<?xml version="1.0" encoding="utf-8"?>
<!-- Generator: Adobe Illustrator 26.0.2, SVG Export Plug-In . SVG Version: 6.00 Build 0)  -->
<svg version="1.1" id="jest-2" xmlns="http://www.w3.org/2000/svg" xmlns:xlink="http://www.w3.org/1999/xlink" x="0px" y="0px"
	 viewBox="0 0 52.9 58.4" style="enable-background:new 0 0 52.9 58.4;" xml:space="preserve">
<style type="text/css">
	.st0{fill:#FFFFFF;}
</style>
<path id="Path_22" class="st0" d="M48.7,39.4c-0.4,2.3-1.8,4.3-3.9,5.5c-2.1,1-4.4,1.6-6.7,1.8c-1.3,0.2-2.7,0.4-4,0.7
	c-3.6,1-7,2.4-10.2,4.2c-6.6,3.3-12.3,6.1-17.7,2.4c-3.9-2.7-3.8-7.8-3.3-10.5c0.5-2.5,1.4-4.9,2.7-7.2c0.2-0.4,0.4-0.8,0.6-1.2
	c0.6,0.2,1.1,0.4,1.7,0.4c-1.1,3.9,0.8,8,4.4,9.7l0.5,0.3l0.5-0.2c3-1.1,5.8-2.8,8.1-5c1.5-1.4,2.9-3.1,4-4.8c3.7,0.6,7.1-2,7.7-5.7
	c0,0,0-0.1,0-0.1c1.4-0.1,2.9-0.1,4.3,0c0.5,3.7,3.9,6.3,7.6,5.8c1.1-0.1,2.1-0.5,3-1.2C48.8,35.9,49,37.6,48.7,39.4L48.7,39.4z
	 M8.6,24.7c2.3,0,4.1,1.8,4.1,4.1c0,2.2-1.7,4-3.8,4.1c-0.1,0-0.2,0-0.3,0c-2.3,0-4.1-1.8-4.1-4.1S6.4,24.7,8.6,24.7z M22.3,28.8
	c0-2.3,1.8-4.1,4.1-4.1s4.1,1.8,4.1,4.1c0,2.1-1.6,3.9-3.7,4.1c-0.1,0-0.3,0-0.4,0C24.2,32.9,22.3,31,22.3,28.8z M39.5,23.9
	c-0.9,0.9-1.5,1.9-1.9,3.1c-1.5-0.1-3.1-0.1-4.6,0c-0.3-1.3-1.1-2.4-2-3.3l4.3-8.6L39.5,23.9z M21.1,2.7h28l-6.6,19.5
	c-0.3,0.1-0.6,0.2-0.8,0.3L35.2,9.1l-6.6,13.3c-0.3-0.1-0.6-0.2-0.9-0.2L21.1,2.7z M48.2,28.8c0,2.3-1.8,4.1-4.1,4.1
	c-2.3,0-4.1-1.8-4.1-4.1c0-2.3,1.8-4.1,4.1-4.1c0.1,0,0.3,0,0.4,0C46.6,24.9,48.2,26.6,48.2,28.8z M50.9,28.8c0-3.3-2.3-6-5.5-6.6
	L52.9,0H17.4L25,22.2c-3.6,0.8-5.9,4.4-5.1,8.1c0.4,1.8,1.5,3.3,3,4.3c-0.9,1.4-2,2.7-3.3,3.8c-1.9,1.8-4.1,3.3-6.6,4.2
	c-2.4-1.4-3.4-4.3-2.4-6.8l0.1-0.2l0.2-0.4c3.5-1.2,5.4-5.1,4.2-8.6s-5.1-5.4-8.6-4.2C2.9,23.6,1,27.5,2.3,31c0.3,1,0.9,1.9,1.6,2.6
	c-0.2,0.5-0.5,1-0.7,1.5c-1.4,2.5-2.3,5.2-2.9,7.9c-1,5.8,0.6,10.5,4.4,13.2c2,1.5,4.5,2.2,7,2.2c4.4,0,8.9-2.2,13.3-4.4
	c3.1-1.7,6.3-3,9.7-4c1.2-0.3,2.4-0.5,3.8-0.7c2.7-0.2,5.3-0.9,7.7-2.1c2.7-1.6,4.6-4.3,5.2-7.4c0.4-2.6-0.1-5.3-1.4-7.5
	C50.5,31.2,50.9,30,50.9,28.8L50.9,28.8z"/>
</svg>
