<?xml version="1.0" encoding="utf-8"?>
<!-- Generator: Adobe Illustrator 26.0.2, SVG Export Plug-In . SVG Version: 6.00 Build 0)  -->
<svg version="1.1" id="Layer_1" xmlns="http://www.w3.org/2000/svg" xmlns:xlink="http://www.w3.org/1999/xlink" x="0px" y="0px"
	 viewBox="0 0 29.1 62.3" style="enable-background:new 0 0 29.1 62.3;" xml:space="preserve">
<style type="text/css">
	.st0{fill:#FFFFFF;}
</style>
<path id="MongoDB_Logo_RGB_Logomark_Forest-Green" class="st0" d="M20,6.9c-2.6-3.1-4.9-6.3-5.3-6.9c0,0-0.1-0.1-0.1,0c0,0,0,0,0,0
	C14,0.7,11.8,3.9,9.1,6.9c-22.4,28.6,3.5,47.9,3.5,47.9l0.2,0.1c0.2,3,0.7,7.3,0.7,7.3h2c0,0,0.5-4.3,0.7-7.3l0.2-0.2
	C16.4,54.8,42.4,35.5,20,6.9z M14.6,54.4L14.6,54.4c-0.5-0.4-1-0.9-1.5-1.5v-0.1l1.4-31.1c0,0,0-0.1,0.1-0.1s0.1,0,0.1,0.1L16,52.9
	v0.1C15.6,53.5,15.1,54,14.6,54.4z"/>
</svg>
