<?xml version="1.0" encoding="utf-8"?>
<!-- Generator: Adobe Illustrator 26.0.2, SVG Export Plug-In . SVG Version: 6.00 Build 0)  -->
<svg version="1.1" id="pytest_logo" xmlns="http://www.w3.org/2000/svg" xmlns:xlink="http://www.w3.org/1999/xlink" x="0px"
	 y="0px" viewBox="0 0 83.6 79.6" style="enable-background:new 0 0 83.6 79.6;" xml:space="preserve">
<style type="text/css">
	.st0{fill:#FFFFFF;}
</style>
<g id="graphics" transform="translate(25.345 0)">
	<path id="horizontal_bar" class="st0" d="M1.5,3.1h30.8c0.8,0,1.5,0.7,1.5,1.5v0l0,0c0,0.8-0.7,1.5-1.5,1.5l0,0H1.5
		C0.7,6.1,0,5.4,0,4.6l0,0C0,3.7,0.7,3.1,1.5,3.1z"/>
	<g id="top_bars" transform="translate(1.775)">
		<path id="Path_1" class="st0" d="M0,0h6.2v1.4H0V0z"/>
		<path id="Path_2" class="st0" d="M8.1,0h6.2v1.4H8.1V0z"/>
		<path id="Path_3" class="st0" d="M16.1,0h6.2v1.4h-6.2V0z"/>
		<path id="Path_4" class="st0" d="M24,0h6.2v1.4H24V0z"/>
	</g>
	<g id="bottom_bars" transform="translate(1.775 7.634)">
		<path id="Path_5" class="st0" d="M24,0h6.2v10.5H24V0z"/>
		<path id="Path_6" class="st0" d="M16.1,0h6.2v17h-6.2V0z"/>
		<path id="Path_7" class="st0" d="M8.1,0h6.2v25.4H8.1V0z"/>
		<path id="Path_8" class="st0" d="M0,0h6.2v31H0V0z"/>
	</g>
</g>
<g id="pytest" transform="translate(0 51.083)">
	<path id="Path_9" class="st0" d="M7.7,21.2c-0.6,0-1.1-0.1-1.7-0.2c-0.5-0.1-0.9-0.3-1.3-0.5c-0.4-0.2-0.7-0.5-1.1-0.8
		c-0.3-0.3-0.6-0.6-0.8-0.9H2.6c0,0.4,0.1,0.7,0.1,1c0,0.3,0,0.5,0.1,0.8c0,0.3,0,0.5,0,0.7v7.3H0V3.9h2.3l0.4,2.3h0.1
		c0.2-0.4,0.5-0.7,0.8-1c0.3-0.3,0.7-0.6,1-0.8C5.1,4.1,5.5,3.9,6,3.8c1.4-0.4,3-0.2,4.3,0.3c0.8,0.4,1.5,1,2,1.7
		c0.6,0.8,1.1,1.8,1.3,2.8c0.3,1.2,0.5,2.5,0.5,3.8c0,1.3-0.1,2.6-0.5,3.8c-0.3,1-0.7,1.9-1.3,2.8c-0.5,0.7-1.2,1.3-2,1.7
		C9.5,21.1,8.6,21.2,7.7,21.2z M7.1,5.9c-0.7,0-1.4,0.1-2,0.4c-0.5,0.2-1,0.6-1.3,1.1C3.5,7.9,3.2,8.5,3.1,9.2
		c-0.2,0.8-0.3,1.7-0.3,2.6v0.6c0,0.9,0.1,1.9,0.2,2.8c0.1,0.7,0.3,1.4,0.7,2c0.3,0.5,0.8,1,1.3,1.3c0.7,0.3,1.4,0.5,2.1,0.4
		c1.3,0.1,2.5-0.6,3.1-1.7c0.7-1.5,1.1-3.2,1-4.9c0.1-1.7-0.2-3.3-1-4.8C9.6,6.5,8.4,5.9,7.1,5.9z"/>
	<path id="Path_10" class="st0" d="M16.1,3.9H19l3.3,9.5c0.1,0.4,0.3,0.8,0.4,1.3c0.1,0.5,0.3,0.9,0.4,1.4c0.1,0.5,0.2,0.9,0.3,1.3
		c0.1,0.4,0.2,0.8,0.2,1.2h0.1c0.1-0.3,0.1-0.6,0.2-1.1c0.1-0.4,0.2-0.9,0.4-1.4s0.3-1,0.4-1.5c0.1-0.5,0.3-0.9,0.4-1.2l3.1-9.5h2.9
		l-6.7,19.2c-0.3,0.8-0.6,1.5-0.9,2.3c-0.3,0.6-0.7,1.2-1.2,1.7c-0.4,0.5-1,0.8-1.6,1.1c-0.7,0.3-1.4,0.4-2.1,0.4
		c-0.5,0-0.9,0-1.4-0.1c-0.4-0.1-0.7-0.1-1-0.2V26c0.3,0.1,0.5,0.1,0.8,0.1c0.3,0,0.7,0.1,1,0.1c0.4,0,0.9-0.1,1.3-0.2
		c0.3-0.1,0.7-0.3,0.9-0.5c0.3-0.2,0.5-0.5,0.7-0.8c0.2-0.4,0.4-0.7,0.5-1.1l0.9-2.5L16.1,3.9z"/>
	<path id="Path_11" class="st0" d="M39.3,18.9c0.2,0,0.4,0,0.6,0c0.2,0,0.5,0,0.7-0.1c0.2,0,0.4-0.1,0.6-0.1s0.3-0.1,0.4-0.1v2.1
		c-0.2,0.1-0.3,0.1-0.5,0.2c-0.2,0.1-0.5,0.1-0.7,0.2c-0.2,0-0.5,0.1-0.8,0.1s-0.5,0-0.8,0c-0.6,0-1.2-0.1-1.8-0.2
		c-0.5-0.2-1-0.5-1.4-0.9c-0.4-0.5-0.8-1-0.9-1.6c-0.2-0.8-0.4-1.7-0.3-2.6V6h-2.4V4.8l2.4-1.2L35.5,0h1.6v3.9h4.3V6h-4.3v9.9
		c-0.1,0.8,0.1,1.6,0.5,2.3C38,18.7,38.6,19,39.3,18.9z"/>
	<path id="Path_12" class="st0" d="M51.6,21.2c-1.1,0-2.1-0.2-3.1-0.6c-0.9-0.4-1.8-0.9-2.4-1.7c-0.7-0.8-1.2-1.7-1.6-2.7
		c-0.4-1.2-0.6-2.5-0.6-3.7c0-1.3,0.2-2.5,0.5-3.8c0.3-1,0.8-2,1.4-2.8c0.6-0.8,1.4-1.4,2.2-1.8c1.8-0.8,3.8-0.8,5.6-0.1
		c0.8,0.4,1.5,0.9,2.1,1.5c0.6,0.7,1,1.5,1.3,2.4c0.3,1,0.5,2.1,0.5,3.1V13H46.8c-0.1,1.6,0.4,3.1,1.3,4.4c0.9,1,2.2,1.5,3.5,1.4
		c0.5,0,1,0,1.5-0.1c0.4,0,0.9-0.1,1.3-0.2c0.4-0.1,0.8-0.2,1.2-0.4c0.4-0.1,0.8-0.3,1.2-0.5v2.5c-0.4,0.2-0.8,0.4-1.2,0.5
		c-0.4,0.1-0.8,0.3-1.2,0.4c-0.4,0.1-0.9,0.2-1.3,0.2C52.6,21.2,52.1,21.2,51.6,21.2z M50.9,5.9c-1.1,0-2.1,0.4-2.8,1.2
		c-0.8,1-1.2,2.2-1.2,3.5h7.6c0-0.6-0.1-1.3-0.2-1.9c-0.1-0.5-0.3-1-0.7-1.5c-0.3-0.4-0.7-0.7-1.1-1C52,6,51.5,5.9,50.9,5.9
		L50.9,5.9z"/>
	<path id="Path_13" class="st0" d="M72,16.3c0,0.7-0.1,1.5-0.5,2.2c-0.3,0.6-0.7,1.2-1.3,1.6c-0.6,0.4-1.3,0.8-2,0.9
		c-0.9,0.2-1.8,0.3-2.7,0.3c-1,0-1.9-0.1-2.9-0.3c-0.7-0.2-1.5-0.4-2.1-0.8v-2.6c0.3,0.2,0.7,0.3,1.1,0.5c0.4,0.2,0.8,0.3,1.2,0.4
		c0.4,0.1,0.9,0.2,1.3,0.3c0.5,0.1,0.9,0.1,1.4,0.1c0.6,0,1.2,0,1.7-0.2c0.4-0.1,0.8-0.3,1.1-0.5c0.3-0.2,0.5-0.5,0.6-0.8
		c0.1-0.3,0.2-0.7,0.2-1c0-0.3,0-0.6-0.2-0.9c-0.1-0.3-0.3-0.6-0.6-0.8c-0.3-0.3-0.7-0.6-1.1-0.8c-0.5-0.3-1.1-0.5-1.8-0.9
		c-0.7-0.3-1.4-0.6-2-0.9c-0.5-0.3-1.1-0.6-1.5-1c-0.4-0.4-0.7-0.8-1-1.3c-0.2-0.6-0.3-1.2-0.3-1.8c0-0.7,0.1-1.3,0.4-1.9
		c0.3-0.6,0.7-1,1.2-1.4c0.6-0.4,1.2-0.7,1.9-0.9c0.8-0.2,1.6-0.3,2.4-0.3c0.9,0,1.9,0.1,2.8,0.3c0.8,0.2,1.6,0.5,2.4,0.9l-1,2.3
		c-0.7-0.3-1.4-0.6-2.1-0.8c-0.7-0.2-1.4-0.3-2.2-0.3c-0.8-0.1-1.6,0.1-2.3,0.5c-0.5,0.3-0.8,0.9-0.8,1.5c0,0.3,0.1,0.6,0.2,0.9
		c0.1,0.3,0.4,0.6,0.6,0.8c0.4,0.3,0.8,0.5,1.2,0.7c0.5,0.2,1.1,0.5,1.8,0.8c0.7,0.3,1.4,0.6,2,0.9c0.5,0.3,1,0.6,1.5,1
		c0.4,0.4,0.7,0.8,0.9,1.3C72,15,72.1,15.7,72,16.3z"/>
	<path id="Path_14" class="st0" d="M81.3,18.9c0.2,0,0.4,0,0.6,0c0.2,0,0.5,0,0.7-0.1c0.2,0,0.4-0.1,0.6-0.1s0.3-0.1,0.4-0.1v2.1
		c-0.2,0.1-0.3,0.1-0.5,0.2c-0.2,0.1-0.5,0.1-0.7,0.2c-0.2,0-0.5,0.1-0.8,0.1c-0.3,0-0.5,0-0.8,0c-0.6,0-1.2-0.1-1.8-0.2
		c-0.5-0.2-1-0.5-1.4-0.9c-0.4-0.5-0.8-1-0.9-1.6c-0.2-0.8-0.4-1.7-0.3-2.6V6H74V4.8l2.4-1.2L77.6,0h1.6v3.9h4.3V6h-4.3v9.9
		c-0.1,0.8,0.1,1.6,0.5,2.3C80.1,18.7,80.7,19,81.3,18.9z"/>
</g>
</svg>
