<?xml version="1.0" encoding="utf-8"?>
<!-- Generator: Adobe Illustrator 26.0.2, SVG Export Plug-In . SVG Version: 6.00 Build 0)  -->
<svg version="1.1" id="python-5" xmlns="http://www.w3.org/2000/svg" xmlns:xlink="http://www.w3.org/1999/xlink" x="0px" y="0px"
	 viewBox="0 0 67.9 67.6" style="enable-background:new 0 0 67.9 67.6;" xml:space="preserve">
<style type="text/css">
	.st0{fill:#FFFFFF;}
</style>
<path id="Path_31" class="st0" d="M33.7,0C16.5,0,17.6,7.5,17.6,7.5l0,7.7H34v2.3H11c0,0-11-1.3-11,16.2s9.6,16.8,9.6,16.8h5.7v-8.1
	c0,0-0.3-9.6,9.5-9.6h16.3c0,0,9.2,0.1,9.2-8.9V9C50.4,9,51.7,0,33.7,0z M24.6,5.2c1.6,0,3,1.3,3,3s-1.3,3-3,3c-1.6,0-3-1.3-3-3
	c0-0.8,0.3-1.5,0.9-2.1C23.1,5.5,23.9,5.2,24.6,5.2z"/>
<path id="Path_32" class="st0" d="M34.2,67.6c17.2,0,16.2-7.5,16.2-7.5l0-7.7H33.9V50h23c0,0,11,1.3,11-16.2s-9.6-16.8-9.6-16.8
	h-5.7v8.1c0,0,0.3,9.6-9.5,9.6H26.8c0,0-9.2-0.1-9.2,8.9v14.9C17.6,58.6,16.2,67.6,34.2,67.6L34.2,67.6z M43.3,62.4
	c-1.6,0-3-1.3-3-3c0-1.6,1.3-3,3-3c1.6,0,3,1.3,3,3c0,0.8-0.3,1.5-0.9,2.1C44.8,62.1,44.1,62.4,43.3,62.4z"/>
</svg>
