<svg id="docker-1" xmlns="http://www.w3.org/2000/svg" xmlns:xlink="http://www.w3.org/1999/xlink" width="76.536" height="55.025" viewBox="0 0 76.536 55.025">
  <defs>
    <clipPath id="clip-path">
      <path id="Path_37" data-name="Path 37" d="M34.725,76.944a4.155,4.155,0,0,1-4.162-3.958,4.167,4.167,0,0,1,8.324,0,4.155,4.155,0,0,1-4.162,3.958ZM85.792,55.369c-.4-3.163-2.377-5.743-4.948-7.722l-.99-.8-.8.99c-1.581,1.785-2.173,4.948-1.979,7.324a10.6,10.6,0,0,0,1.785,4.948c-.8.4-1.785.8-2.571,1.184a16.739,16.739,0,0,1-5.345.8H19.679l-.194,1.184A22.162,22.162,0,0,0,21.27,74.558l.8,1.387v.194c4.754,7.916,13.262,11.486,22.565,11.486,17.821,0,32.47-7.722,39.4-24.35,4.55.194,9.109-.99,11.282-5.345l.592-.99-.99-.592a12.2,12.2,0,0,0-9.119-.98ZM60.259,52.206H52.537v7.722h7.722Zm0-9.7H52.537v7.722h7.722Zm0-9.9H52.537v7.722h7.722Zm9.507,19.606H62.044v7.722h7.722Zm-28.706,0H33.338v7.722H41.06V52.206Zm9.7,0H43.039v7.722h7.722Zm-19.208,0H23.831v7.722h7.722V52.206Zm19.208-9.7H43.039v7.722h7.722Zm-9.7,0H33.338v7.722H41.06V42.5Z" transform="translate(-19.365 -32.6)" fill="#2391e6"/>
    </clipPath>
  </defs>
  <path id="SVGID_1_" d="M34.725,76.944a4.155,4.155,0,0,1-4.162-3.958,4.167,4.167,0,0,1,8.324,0,4.155,4.155,0,0,1-4.162,3.958ZM85.792,55.369c-.4-3.163-2.377-5.743-4.948-7.722l-.99-.8-.8.99c-1.581,1.785-2.173,4.948-1.979,7.324a10.6,10.6,0,0,0,1.785,4.948c-.8.4-1.785.8-2.571,1.184a16.739,16.739,0,0,1-5.345.8H19.679l-.194,1.184A22.162,22.162,0,0,0,21.27,74.558l.8,1.387v.194c4.754,7.916,13.262,11.486,22.565,11.486,17.821,0,32.47-7.722,39.4-24.35,4.55.194,9.109-.99,11.282-5.345l.592-.99-.99-.592a12.2,12.2,0,0,0-9.119-.98ZM60.259,52.206H52.537v7.722h7.722Zm0-9.7H52.537v7.722h7.722Zm0-9.9H52.537v7.722h7.722Zm9.507,19.606H62.044v7.722h7.722Zm-28.706,0H33.338v7.722H41.06V52.206Zm9.7,0H43.039v7.722h7.722Zm-19.208,0H23.831v7.722h7.722V52.206Zm19.208-9.7H43.039v7.722h7.722Zm-9.7,0H33.338v7.722H41.06V42.5Z" transform="translate(-19.365 -32.6)" fill="#2391e6"/>
  <g id="Group_5" data-name="Group 5" transform="translate(0 0)">
    <g id="Group_4" data-name="Group 4" transform="translate(0 0)" clip-path="url(#clip-path)">
      <path id="SVGID_3_" d="M-995.7-428.5H1527.9v299.708H-995.7Z" transform="translate(897.227 383.768)" fill="#2391e6"/>
    </g>
  </g>
</svg>
