<svg xmlns="http://www.w3.org/2000/svg" width="30.635" height="29.87" viewBox="0 0 30.635 29.87">
  <path id="Icon_awesome-github" data-name="Icon awesome-github" d="M10.247,24.614c0,.124-.142.222-.321.222-.2.019-.346-.08-.346-.222,0-.124.142-.222.321-.222C10.086,24.373,10.247,24.472,10.247,24.614Zm-1.921-.278c-.043.124.08.266.266.3a.29.29,0,0,0,.383-.124c.037-.124-.08-.266-.266-.321A.317.317,0,0,0,8.326,24.336Zm2.73-.105c-.179.043-.3.161-.284.3.019.124.179.2.364.161s.3-.161.284-.284S11.235,24.212,11.056,24.231ZM15.12.563A14.811,14.811,0,0,0,0,15.633,15.485,15.485,0,0,0,10.469,30.407c.791.142,1.069-.346,1.069-.747,0-.383-.019-2.5-.019-3.792,0,0-4.324.926-5.231-1.841,0,0-.7-1.8-1.717-2.261,0,0-1.414-.97.1-.951a3.26,3.26,0,0,1,2.384,1.594,3.265,3.265,0,0,0,4.5,1.291,3.433,3.433,0,0,1,.988-2.081c-3.453-.383-6.936-.883-6.936-6.825a4.681,4.681,0,0,1,1.458-3.638,5.836,5.836,0,0,1,.161-4.194c1.291-.4,4.262,1.668,4.262,1.668a14.591,14.591,0,0,1,7.758,0s2.971-2.075,4.262-1.668a5.833,5.833,0,0,1,.161,4.194,4.8,4.8,0,0,1,1.594,3.638c0,5.96-3.638,6.436-7.091,6.825a3.653,3.653,0,0,1,1.05,2.866c0,2.081-.019,4.657-.019,5.164,0,.4.284.889,1.069.747A15.342,15.342,0,0,0,30.635,15.633C30.635,7.066,23.687.563,15.12.563ZM6,21.865c-.08.062-.062.2.043.321.1.1.241.142.321.062.08-.062.062-.2-.043-.321C6.226,21.828,6.084,21.785,6,21.865Zm-.667-.5c-.043.08.019.179.142.241a.184.184,0,0,0,.266-.043c.043-.08-.019-.179-.142-.241C5.479,21.285,5.38,21.3,5.336,21.365Zm2,2.2c-.1.08-.062.266.08.383.142.142.321.161.4.062.08-.08.043-.266-.08-.383C7.6,23.483,7.418,23.465,7.338,23.564Zm-.7-.908c-.1.062-.1.222,0,.364s.266.2.346.142a.282.282,0,0,0,0-.383C6.893,22.637,6.732,22.576,6.634,22.656Z" transform="translate(0 -0.563)" fill="#eee"/>
</svg>
