<svg id="logo-javascript" xmlns="http://www.w3.org/2000/svg" width="68.941" height="68.941" viewBox="0 0 68.941 68.941">
  <path id="Path_23" data-name="Path 23" d="M0,0H68.941V68.941H0Z" fill="#f0db4f"/>
  <path id="Path_24" data-name="Path 24" d="M321.679,498.461c-.5-3.146-2.556-5.787-8.631-8.251-2.11-.97-4.463-1.664-5.164-3.264a3.56,3.56,0,0,1-.124-2.018c.452-1.828,2.634-2.4,4.365-1.874a4.8,4.8,0,0,1,2.8,2.6c2.975-1.927,2.969-1.914,5.046-3.237a12.857,12.857,0,0,0-1.664-2.228c-1.789-2-4.227-3.028-8.126-2.949-.675.085-1.356.177-2.032.262a9.216,9.216,0,0,0-4.889,2.883,9.026,9.026,0,0,0,1.638,12.851c3.912,2.936,9.66,3.6,10.394,6.35.714,3.362-2.471,4.45-5.636,4.063-2.333-.485-3.63-1.671-5.033-3.827-2.582,1.494-2.582,1.494-5.236,3.021a11.651,11.651,0,0,0,2.346,3.191c4.994,5.066,17.491,4.817,19.732-2.851A9.467,9.467,0,0,0,321.679,498.461Zm-25.82-20.813H289.41c0,5.57-.026,11.1-.026,16.672,0,3.545.183,6.8-.393,7.792-.944,1.959-3.388,1.717-4.5,1.337a5.534,5.534,0,0,1-2.379-2.471,3.32,3.32,0,0,0-.367-.59q-2.625,1.6-5.243,3.211a10.362,10.362,0,0,0,3.8,4.351,12.518,12.518,0,0,0,9.214,1.134,8.142,8.142,0,0,0,5.2-4.076c1.468-2.707,1.153-5.983,1.14-9.607C295.891,489.489,295.859,483.578,295.859,477.647Z" transform="translate(-258.38 -445.962)" fill="#323330"/>
</svg>
