<svg id="jest-2" xmlns="http://www.w3.org/2000/svg" width="52.874" height="58.395" viewBox="0 0 52.874 58.395">
  <path id="Path_21" data-name="Path 21" d="M54.677,33.84a5.435,5.435,0,0,0-6.007-5.405L56.136,6.416H24.41l7.455,22q-.165-.01-.33-.011a5.436,5.436,0,0,0-1.65,10.615A23.743,23.743,0,0,1,25.611,44.4a21.764,21.764,0,0,1-7.616,4.728,6.93,6.93,0,0,1-3.472-8.821c.16-.376.323-.756.479-1.135a5.436,5.436,0,1,0-4.359-.842C9.3,41.392,7.319,44.6,6.7,48.313c-.738,4.453,0,9.179,3.849,11.848,8.969,6.216,18.7-3.854,28.969-6.385,3.72-.917,7.8-.769,11.081-2.668a9.28,9.28,0,0,0,4.544-6.44,9.672,9.672,0,0,0-1.733-7.344,5.412,5.412,0,0,0,1.264-3.484" transform="translate(-5.113 -5.089)" fill="#99425b"/>
  <path id="Path_22" data-name="Path 22" d="M48.725,39.352a7.968,7.968,0,0,1-3.9,5.519A18.561,18.561,0,0,1,38.1,46.684c-1.318.19-2.68.387-4.012.715a51.275,51.275,0,0,0-10.226,4.2c-6.6,3.277-12.3,6.107-17.669,2.383-3.936-2.728-3.754-7.774-3.3-10.54a26.741,26.741,0,0,1,2.685-7.2q.284-.582.563-1.166a6.715,6.715,0,0,0,1.747.438,8.268,8.268,0,0,0,4.38,9.708l.511.263.541-.193a23,23,0,0,0,8.082-5.013,25.206,25.206,0,0,0,4-4.837,6.763,6.763,0,0,0,7.714-5.793c1.4-.051,2.892-.052,4.3,0A6.756,6.756,0,0,0,47.984,34.3a8.251,8.251,0,0,1,.741,5.05ZM8.648,24.682a4.107,4.107,0,0,1,.282,8.205c-.093.006-.187.011-.282.011a4.108,4.108,0,1,1,0-8.216Zm13.666,4.069a4.107,4.107,0,1,1,4.522,4.087q-.2.02-.414.021a4.113,4.113,0,0,1-4.108-4.108Zm17.145-4.885a6.77,6.77,0,0,0-1.86,3.128q-2.322-.086-4.647,0A6.777,6.777,0,0,0,30.915,23.7l4.251-8.6ZM21.148,2.655H49.17l-6.619,19.52a6.719,6.719,0,0,0-.838.26L35.176,9.1,28.619,22.355a6.725,6.725,0,0,0-.874-.236Zm27.087,26.1a4.1,4.1,0,1,1-4.108-4.108c.13,0,.258.007.384.019a4.113,4.113,0,0,1,3.724,4.089Zm2.655,0a6.773,6.773,0,0,0-5.512-6.645L52.874,0H17.445l7.507,22.151a6.759,6.759,0,0,0-2.1,12.343,22.664,22.664,0,0,1-3.269,3.85A20.5,20.5,0,0,1,13,42.577a5.539,5.539,0,0,1-2.366-6.841l.083-.194.155-.365A6.768,6.768,0,1,0,3.9,33.6q-.348.738-.707,1.471A29.182,29.182,0,0,0,.28,43.007c-.969,5.845.594,10.517,4.4,13.156A12,12,0,0,0,11.7,58.395c4.446,0,8.944-2.234,13.344-4.419a49.381,49.381,0,0,1,9.681-4c1.2-.3,2.443-.476,3.755-.665a20.809,20.809,0,0,0,7.674-2.143,10.616,10.616,0,0,0,5.187-7.362,10.961,10.961,0,0,0-1.44-7.536,6.722,6.722,0,0,0,.99-3.52Z" transform="translate(0)" fill="#fff"/>
</svg>
