<svg xmlns="http://www.w3.org/2000/svg" width="29.104" height="62.256" viewBox="0 0 29.104 62.256">
  <path id="MongoDB_Logo_RGB_Logomark_Forest-Green" d="M141.283,127.126c-2.619-3.091-4.876-6.251-5.334-6.9a.1.1,0,0,0-.17,0c-.458.649-2.714,3.809-5.333,6.9-22.447,28.6,3.543,47.89,3.543,47.89l.211.146c.2,2.985.687,7.275.687,7.275h1.956s.487-4.271.685-7.256l.212-.166S163.73,155.723,141.283,127.126ZM135.865,174.6h0a11.092,11.092,0,0,1-1.48-1.492l0-.054,1.409-31.133a.073.073,0,0,1,.147,0l1.409,31.133,0,.053A11.086,11.086,0,0,1,135.865,174.6Z" transform="translate(-121.313 -120.182)" fill="#00684a"/>
</svg>
