<svg id="pytest_logo" xmlns="http://www.w3.org/2000/svg" width="83.646" height="79.637" viewBox="0 0 83.646 79.637">
  <g id="graphics" transform="translate(25.345 0)">
    <path id="horizontal_bar" d="M501.958,213.75h30.751a1.507,1.507,0,0,1,1.507,1.507h0a1.507,1.507,0,0,1-1.507,1.507H501.958a1.507,1.507,0,0,1-1.507-1.507h0A1.507,1.507,0,0,1,501.958,213.75Z" transform="translate(-500.451 -210.7)" fill="#333"/>
    <g id="top_bars" transform="translate(1.775)">
      <path id="Path_1" data-name="Path 1" d="M525.333,171h6.183v1.427h-6.183Z" transform="translate(-525.333 -171)" fill="#333"/>
      <path id="Path_2" data-name="Path 2" d="M638.667,171h6.183v1.427h-6.183Z" transform="translate(-630.582 -171)" fill="#333"/>
      <path id="Path_3" data-name="Path 3" d="M750.5,171h6.183v1.427H750.5Z" transform="translate(-734.436 -171)" fill="#333"/>
      <path id="Path_4" data-name="Path 4" d="M861.861,171h6.183v1.427h-6.183Z" transform="translate(-837.853 -171)" fill="#333"/>
    </g>
    <g id="bottom_bars" transform="translate(1.775 7.634)">
      <path id="Path_5" data-name="Path 5" d="M861.861,278h6.183v10.452h-6.183Z" transform="translate(-837.853 -278)" fill="#333"/>
      <path id="Path_6" data-name="Path 6" d="M750.5,278h6.194v16.979H750.5Z" transform="translate(-734.436 -278)" fill="#333"/>
      <path id="Path_7" data-name="Path 7" d="M638.667,278h6.183v25.433h-6.183Z" transform="translate(-630.582 -278)" fill="#333"/>
      <path id="Path_8" data-name="Path 8" d="M525.333,278h6.183v31h-6.183Z" transform="translate(-525.333 -278)" fill="#333"/>
    </g>
  </g>
  <g id="pytest" transform="translate(0 51.083)">
    <path id="Path_9" data-name="Path 9" d="M152.875,944.216a6.338,6.338,0,0,1-1.659-.2,5.9,5.9,0,0,1-1.341-.535,4.9,4.9,0,0,1-1.054-.783,7.3,7.3,0,0,1-.814-.946h-.186q.047.527.093,1.008.031.4.062.829t.031.674v7.27h-2.821V926.885h2.294l.4,2.294h.124a7.235,7.235,0,0,1,.806-1.015,4.716,4.716,0,0,1,1.046-.822,5.7,5.7,0,0,1,1.341-.558,6.659,6.659,0,0,1,4.325.349,5.44,5.44,0,0,1,2.038,1.667,8.155,8.155,0,0,1,1.31,2.751,14.058,14.058,0,0,1,.465,3.813,14.21,14.21,0,0,1-.465,3.837,8.24,8.24,0,0,1-1.31,2.767,5.482,5.482,0,0,1-2.038,1.682A6.11,6.11,0,0,1,152.875,944.216Zm-.543-15.3a4.958,4.958,0,0,0-1.992.357,3.068,3.068,0,0,0-1.318,1.085,5.1,5.1,0,0,0-.744,1.814,13.246,13.246,0,0,0-.271,2.558v.636a16.551,16.551,0,0,0,.209,2.783,5.816,5.816,0,0,0,.713,2.046,3.3,3.3,0,0,0,1.341,1.256,4.587,4.587,0,0,0,2.093.426,3.309,3.309,0,0,0,3.077-1.69,9.754,9.754,0,0,0,.984-4.852,9.362,9.362,0,0,0-.984-4.821A3.384,3.384,0,0,0,152.332,928.916Z" transform="translate(-145.186 -922.979)" fill="#333"/>
    <path id="Path_10" data-name="Path 10" d="M370.293,930.921h2.93l3.333,9.5q.217.62.442,1.3t.419,1.364q.194.682.333,1.318a11.733,11.733,0,0,1,.2,1.178h.093q.077-.388.248-1.054t.38-1.418q.209-.752.434-1.48t.4-1.24l3.085-9.471H385.5l-6.728,19.237a18.321,18.321,0,0,1-.938,2.255,6.981,6.981,0,0,1-1.17,1.7,4.639,4.639,0,0,1-1.566,1.078,5.479,5.479,0,0,1-2.139.38,9.9,9.9,0,0,1-1.4-.085q-.589-.085-1.008-.178v-2.248a6.894,6.894,0,0,0,.822.132,9.55,9.55,0,0,0,1.039.054,4.14,4.14,0,0,0,1.287-.178,2.8,2.8,0,0,0,.946-.519,3.145,3.145,0,0,0,.69-.837,7.2,7.2,0,0,0,.519-1.132l.884-2.48Z" transform="translate(-354.234 -927.015)" fill="#333"/>
    <path id="Path_11" data-name="Path 11" d="M600.124,895.092q.279,0,.628-.031t.674-.078q.326-.047.6-.108t.411-.109v2.139a3.971,3.971,0,0,1-.512.186,6.634,6.634,0,0,1-.682.163q-.372.07-.775.109t-.791.039a6.141,6.141,0,0,1-1.783-.248,3.3,3.3,0,0,1-1.418-.853,4.134,4.134,0,0,1-.938-1.635,8.389,8.389,0,0,1-.341-2.6V882.2h-2.4v-1.256l2.4-1.209,1.209-3.565h1.628v3.906h4.278V882.2h-4.278v9.875a4.232,4.232,0,0,0,.488,2.263A1.762,1.762,0,0,0,600.124,895.092Z" transform="translate(-560.859 -876.165)" fill="#333"/>
    <path id="Path_12" data-name="Path 12" d="M768.644,944.216a8.2,8.2,0,0,1-3.116-.574,6.682,6.682,0,0,1-2.426-1.674,7.6,7.6,0,0,1-1.573-2.728,11.444,11.444,0,0,1-.558-3.72,12.772,12.772,0,0,1,.512-3.767,8.359,8.359,0,0,1,1.442-2.813,6.2,6.2,0,0,1,2.224-1.759,7.128,7.128,0,0,1,5.619-.054,5.836,5.836,0,0,1,2.077,1.55,7,7,0,0,1,1.31,2.4,9.988,9.988,0,0,1,.457,3.108v1.752H763.885a7.057,7.057,0,0,0,1.263,4.4,4.347,4.347,0,0,0,3.527,1.411,12.866,12.866,0,0,0,1.465-.077,11.4,11.4,0,0,0,1.3-.225,9.509,9.509,0,0,0,1.217-.372q.589-.225,1.194-.5v2.511q-.62.295-1.217.512a9.785,9.785,0,0,1-1.225.357,10.384,10.384,0,0,1-1.3.2Q769.435,944.216,768.644,944.216Zm-.7-15.3a3.485,3.485,0,0,0-2.8,1.209,6,6,0,0,0-1.2,3.519h7.627a8.309,8.309,0,0,0-.209-1.93,4.256,4.256,0,0,0-.651-1.5,3.017,3.017,0,0,0-1.124-.961A3.64,3.64,0,0,0,767.947,928.916Z" transform="translate(-717.04 -922.979)" fill="#333"/>
    <path id="Path_13" data-name="Path 13" d="M1005.6,939.24a4.934,4.934,0,0,1-.45,2.17,4.187,4.187,0,0,1-1.294,1.558,5.839,5.839,0,0,1-2.038.938,10.68,10.68,0,0,1-2.682.31,13.413,13.413,0,0,1-2.9-.271,7.531,7.531,0,0,1-2.124-.8v-2.573q.481.248,1.07.488a12.033,12.033,0,0,0,1.24.426,12.369,12.369,0,0,0,1.341.3,8.246,8.246,0,0,0,1.372.116,7.4,7.4,0,0,0,1.713-.171,3.27,3.27,0,0,0,1.147-.488,1.886,1.886,0,0,0,.643-.775,2.491,2.491,0,0,0,.2-1.015,2.32,2.32,0,0,0-.155-.868,2.172,2.172,0,0,0-.566-.767,5.614,5.614,0,0,0-1.124-.767q-.713-.388-1.829-.868t-2.007-.945a6.945,6.945,0,0,1-1.511-1.039,4,4,0,0,1-.953-1.325,4.4,4.4,0,0,1-.333-1.79,4.228,4.228,0,0,1,.426-1.93,3.968,3.968,0,0,1,1.2-1.418,5.527,5.527,0,0,1,1.86-.868,9.228,9.228,0,0,1,2.418-.295,10.887,10.887,0,0,1,2.752.326,13.51,13.51,0,0,1,2.364.853l-.977,2.279a19.121,19.121,0,0,0-2.069-.783,7.178,7.178,0,0,0-2.162-.333,4.2,4.2,0,0,0-2.341.519,1.687,1.687,0,0,0-.76,1.48,2.322,2.322,0,0,0,.178.945,2.1,2.1,0,0,0,.612.76,6.267,6.267,0,0,0,1.163.721q.729.364,1.814.814,1.116.465,1.992.93a6.907,6.907,0,0,1,1.5,1.046,4.007,4.007,0,0,1,.946,1.325A4.429,4.429,0,0,1,1005.6,939.24Z" transform="translate(-933.554 -922.979)" fill="#333"/>
    <path id="Path_14" data-name="Path 14" d="M1189.836,895.092q.279,0,.628-.031t.674-.078q.326-.047.6-.108t.411-.109v2.139a3.972,3.972,0,0,1-.512.186,6.631,6.631,0,0,1-.682.163q-.372.07-.775.109t-.791.039a6.14,6.14,0,0,1-1.783-.248,3.3,3.3,0,0,1-1.419-.853,4.136,4.136,0,0,1-.938-1.635,8.391,8.391,0,0,1-.341-2.6V882.2h-2.4v-1.256l2.4-1.209,1.209-3.565h1.628v3.906h4.278V882.2h-4.278v9.875a4.232,4.232,0,0,0,.488,2.263A1.763,1.763,0,0,0,1189.836,895.092Z" transform="translate(-1108.5 -876.165)" fill="#333"/>
  </g>
</svg>
