{
    "asset" : {
        "generator" : "Khronos glTF Blender I/O v1.6.16",
        "version" : "2.0"
    },
    "scene" : 0,
    "scenes" : [
        {
            "name" : "Scene",
            "nodes" : [
                7,
                8,
                9
            ]
        }
    ],
    "nodes" : [
        {
            "mesh" : 0,
            "name" : "Mesh_0",
            "translation" : [
                2.009352684020996,
                13.518793106079102,
                0.6019813418388367
            ]
        },
        {
            "mesh" : 1,
            "name" : "Mesh_1",
            "translation" : [
                2.009352684020996,
                13.518793106079102,
                0.6019813418388367
            ]
        },
        {
            "mesh" : 2,
            "name" : "Mesh_2",
            "translation" : [
                2.009352684020996,
                13.518793106079102,
                0.6019813418388367
            ]
        },
        {
            "mesh" : 3,
            "name" : "Mesh_3",
            "translation" : [
                2.009352684020996,
                13.518793106079102,
                0.6019813418388367
            ]
        },
        {
            "mesh" : 4,
            "name" : "Mesh_4",
            "translation" : [
                2.009352684020996,
                13.518793106079102,
                0.6019813418388367
            ]
        },
        {
            "children" : [
                0,
                1,
                2,
                3,
                4
            ],
            "name" : "Ice Cream.obj.cleaner.gles"
        },
        {
            "children" : [
                5
            ],
            "name" : "RootNode (model correction matrix)"
        },
        {
            "children" : [
                6
            ],
            "name" : "RootNode (gltf orientation matrix)",
            "rotation" : [
                -0.7071068286895752,
                0,
                0,
                0.7071068286895752
            ]
        },
        {
            "name" : "Light",
            "rotation" : [
                0.16907575726509094,
                0.7558803558349609,
                -0.27217137813568115,
                0.570947527885437
            ],
            "translation" : [
                4.076245307922363,
                5.903861999511719,
                -1.0054539442062378
            ]
        },
        {
            "name" : "Camera",
            "rotation" : [
                0.483536034822464,
                0.33687159419059753,
                -0.20870360732078552,
                0.7804827094078064
            ],
            "translation" : [
                7.358891487121582,
                4.958309173583984,
                6.925790786743164
            ]
        }
    ],
    "materials" : [
        {
            "doubleSided" : true,
            "name" : "color133_0",
            "pbrMetallicRoughness" : {
                "baseColorFactor" : [
                    0,
                    0,
                    0,
                    1
                ],
                "metallicFactor" : 0,
                "roughnessFactor" : 0.6000000238418579
            }
        },
        {
            "doubleSided" : true,
            "name" : "color133_1",
            "pbrMetallicRoughness" : {
                "baseColorFactor" : [
                    0.9607840180397034,
                    0.8705880045890808,
                    0.37647101283073425,
                    1
                ],
                "metallicFactor" : 0,
                "roughnessFactor" : 0.6000000238418579
            }
        },
        {
            "doubleSided" : true,
            "name" : "color133_2",
            "pbrMetallicRoughness" : {
                "baseColorFactor" : [
                    1,
                    0.6862750053405762,
                    0.7960780262947083,
                    0.8378378748893738
                ],
                "metallicFactor" : 0,
                "roughnessFactor" : 0.6000000238418579
            }
        },
        {
            "doubleSided" : true,
            "name" : "color133_3",
            "pbrMetallicRoughness" : {
                "baseColorFactor" : [
                    1,
                    0.3882350027561188,
                    1,
                    1
                ],
                "metallicFactor" : 0,
                "roughnessFactor" : 0.6000000238418579
            }
        },
        {
            "doubleSided" : true,
            "name" : "color133_4",
            "pbrMetallicRoughness" : {
                "metallicFactor" : 0,
                "roughnessFactor" : 0.6000000238418579
            }
        }
    ],
    "meshes" : [
        {
            "name" : "Mesh_0",
            "primitives" : [
                {
                    "attributes" : {
                        "POSITION" : 0,
                        "NORMAL" : 1
                    },
                    "indices" : 2,
                    "material" : 0
                }
            ]
        },
        {
            "name" : "Mesh_1",
            "primitives" : [
                {
                    "attributes" : {
                        "POSITION" : 3,
                        "NORMAL" : 4
                    },
                    "indices" : 5,
                    "material" : 1
                }
            ]
        },
        {
            "name" : "Mesh_2",
            "primitives" : [
                {
                    "attributes" : {
                        "POSITION" : 6,
                        "NORMAL" : 7
                    },
                    "indices" : 8,
                    "material" : 2
                }
            ]
        },
        {
            "name" : "Mesh_3",
            "primitives" : [
                {
                    "attributes" : {
                        "POSITION" : 9,
                        "NORMAL" : 10
                    },
                    "indices" : 11,
                    "material" : 3
                }
            ]
        },
        {
            "name" : "Mesh_4",
            "primitives" : [
                {
                    "attributes" : {
                        "POSITION" : 12,
                        "NORMAL" : 13
                    },
                    "indices" : 14,
                    "material" : 4
                }
            ]
        }
    ],
    "accessors" : [
        {
            "bufferView" : 0,
            "componentType" : 5126,
            "count" : 604,
            "max" : [
                8.25,
                -12.75,
                18.75
            ],
            "min" : [
                -12.75,
                -14.25,
                -11.25
            ],
            "type" : "VEC3"
        },
        {
            "bufferView" : 1,
            "componentType" : 5126,
            "count" : 604,
            "type" : "VEC3"
        },
        {
            "bufferView" : 2,
            "componentType" : 5123,
            "count" : 1248,
            "type" : "SCALAR"
        },
        {
            "bufferView" : 3,
            "componentType" : 5126,
            "count" : 152,
            "max" : [
                5.25,
                -12.75,
                3.75
            ],
            "min" : [
                -9.75,
                -14.25,
                -9.75
            ],
            "type" : "VEC3"
        },
        {
            "bufferView" : 4,
            "componentType" : 5126,
            "count" : 152,
            "type" : "VEC3"
        },
        {
            "bufferView" : 5,
            "componentType" : 5123,
            "count" : 552,
            "type" : "SCALAR"
        },
        {
            "bufferView" : 6,
            "componentType" : 5126,
            "count" : 210,
            "max" : [
                6.75,
                -12.75,
                17.25
            ],
            "min" : [
                -11.25,
                -14.25,
                3.75
            ],
            "type" : "VEC3"
        },
        {
            "bufferView" : 7,
            "componentType" : 5126,
            "count" : 210,
            "type" : "VEC3"
        },
        {
            "bufferView" : 8,
            "componentType" : 5123,
            "count" : 816,
            "type" : "SCALAR"
        },
        {
            "bufferView" : 9,
            "componentType" : 5126,
            "count" : 32,
            "max" : [
                5.25,
                -12.75,
                11.25
            ],
            "min" : [
                -9.75,
                -14.25,
                8.25
            ],
            "type" : "VEC3"
        },
        {
            "bufferView" : 10,
            "componentType" : 5126,
            "count" : 32,
            "type" : "VEC3"
        },
        {
            "bufferView" : 11,
            "componentType" : 5123,
            "count" : 72,
            "type" : "SCALAR"
        },
        {
            "bufferView" : 12,
            "componentType" : 5126,
            "count" : 16,
            "max" : [
                2.25,
                -12.75,
                12.75
            ],
            "min" : [
                -8.25,
                -14.25,
                11.25
            ],
            "type" : "VEC3"
        },
        {
            "bufferView" : 13,
            "componentType" : 5126,
            "count" : 16,
            "type" : "VEC3"
        },
        {
            "bufferView" : 14,
            "componentType" : 5123,
            "count" : 24,
            "type" : "SCALAR"
        }
    ],
    "bufferViews" : [
        {
            "buffer" : 0,
            "byteLength" : 7248,
            "byteOffset" : 0
        },
        {
            "buffer" : 0,
            "byteLength" : 7248,
            "byteOffset" : 7248
        },
        {
            "buffer" : 0,
            "byteLength" : 2496,
            "byteOffset" : 14496
        },
        {
            "buffer" : 0,
            "byteLength" : 1824,
            "byteOffset" : 16992
        },
        {
            "buffer" : 0,
            "byteLength" : 1824,
            "byteOffset" : 18816
        },
        {
            "buffer" : 0,
            "byteLength" : 1104,
            "byteOffset" : 20640
        },
        {
            "buffer" : 0,
            "byteLength" : 2520,
            "byteOffset" : 21744
        },
        {
            "buffer" : 0,
            "byteLength" : 2520,
            "byteOffset" : 24264
        },
        {
            "buffer" : 0,
            "byteLength" : 1632,
            "byteOffset" : 26784
        },
        {
            "buffer" : 0,
            "byteLength" : 384,
            "byteOffset" : 28416
        },
        {
            "buffer" : 0,
            "byteLength" : 384,
            "byteOffset" : 28800
        },
        {
            "buffer" : 0,
            "byteLength" : 144,
            "byteOffset" : 29184
        },
        {
            "buffer" : 0,
            "byteLength" : 192,
            "byteOffset" : 29328
        },
        {
            "buffer" : 0,
            "byteLength" : 192,
            "byteOffset" : 29520
        },
        {
            "buffer" : 0,
            "byteLength" : 48,
            "byteOffset" : 29712
        }
    ],
    "buffers" : [
        {
            "byteLength" : 29760,
            "uri" : "./scene.bin"
        }
    ]
}
