<?xml version="1.0" encoding="UTF-8"?><svg id="a" xmlns="http://www.w3.org/2000/svg" viewBox="0 0 674.07 434.55"><defs><style>.b{fill:#fff;}.c{fill:#ccc;}.d{fill:#3f3d56;}.e{fill:#82baa3;}</style></defs><path class="b" d="M657.57,434.55H16.73c-9.11-.01-16.49-7.39-16.5-16.5V22.89c0-6.67,5.41-12.08,12.09-12.09H661.77c6.79,0,12.29,5.51,12.3,12.3V418.05c-.01,9.11-7.39,16.49-16.5,16.5Z"/><path class="b" d="M636.85,413.72H39.61c-8.76,0-15.88-6.67-15.88-14.87V54.74c0-6.08,5.28-11.03,11.77-11.03H640.77c6.6,0,11.96,5.03,11.96,11.21V398.85c0,8.2-7.12,14.87-15.88,14.87Z"/><path class="d" d="M673.84,24.95H0v-8.4C.01,7.41,7.42,0,16.56,0H657.28c9.14,0,16.55,7.41,16.56,16.55v8.4Z"/><circle class="b" cx="30.1" cy="12.5" r="4.28"/><circle class="b" cx="46.35" cy="12.5" r="4.28"/><circle class="b" cx="62.61" cy="12.5" r="4.28"/><path class="c" d="M324.06,118.95h-116.81c-3.63,0-6.56-2.94-6.56-6.57,0-3.62,2.94-6.56,6.56-6.56h116.81c3.63,0,6.57,2.94,6.57,6.56s-2.94,6.57-6.56,6.57h0Z"/><path class="c" d="M469.21,118.95h-116.81c-3.63,0-6.56-2.94-6.56-6.57,0-3.62,2.94-6.56,6.56-6.56h116.81c3.63,0,6.57,2.94,6.57,6.56s-2.94,6.57-6.56,6.57h0Z"/><path class="c" d="M469.21,143.84h-203.2c-3.63,0-6.57-2.94-6.57-6.57s2.94-6.57,6.57-6.57h203.2c3.63,0,6.57,2.94,6.57,6.57s-2.94,6.57-6.57,6.57Z"/><path class="c" d="M324.06,93.73h-116.81c-3.63,0-6.56-2.95-6.56-6.58,0-3.62,2.94-6.55,6.56-6.56h116.81c3.63,0,6.57,2.93,6.58,6.56s-2.93,6.57-6.56,6.58c0,0-.01,0-.02,0Z"/><path class="c" d="M388.34,94.07h-33.18c-3.63,0-6.56-2.94-6.56-6.57,0-3.62,2.94-6.56,6.56-6.56h33.18c3.63,0,6.57,2.94,6.57,6.56,0,3.63-2.94,6.57-6.56,6.57h0Z"/><path class="c" d="M240.43,143.84h-33.18c-3.63,0-6.56-2.95-6.56-6.58,0-3.62,2.94-6.55,6.56-6.56h33.18c3.63,0,6.57,2.93,6.58,6.56s-2.93,6.57-6.56,6.58h-.02Z"/><path class="c" d="M324.06,351.95h-116.81c-3.63,0-6.57-2.94-6.57-6.57s2.94-6.57,6.57-6.57h116.81c3.63,0,6.57,2.94,6.57,6.57s-2.94,6.57-6.57,6.57h0Z"/><path class="c" d="M469.21,351.95h-116.81c-3.63,0-6.57-2.94-6.57-6.57s2.94-6.57,6.57-6.57h116.81c3.63,0,6.57,2.94,6.57,6.57s-2.94,6.57-6.57,6.57Z"/><path class="c" d="M469.21,376.84h-203.2c-3.63,0-6.57-2.94-6.57-6.57s2.94-6.57,6.57-6.57h203.2c3.63,0,6.57,2.93,6.58,6.56,0,3.63-2.93,6.57-6.56,6.58h-.02Z"/><path class="c" d="M324.06,326.73h-116.81c-3.63,0-6.57-2.94-6.57-6.57s2.94-6.57,6.57-6.57h116.81c3.63,0,6.57,2.94,6.57,6.57s-2.94,6.57-6.57,6.57Z"/><path class="c" d="M388.34,327.07h-33.18c-3.63,0-6.57-2.94-6.57-6.57s2.94-6.57,6.57-6.57h33.18c3.63,0,6.57,2.94,6.57,6.57s-2.94,6.57-6.57,6.57Z"/><path class="c" d="M240.43,376.84h-33.18c-3.63,0-6.57-2.94-6.57-6.57s2.94-6.57,6.57-6.57h33.18c3.63,0,6.57,2.93,6.58,6.56,0,3.63-2.93,6.57-6.56,6.58h-.02Z"/><path class="e" d="M293.55,281.46c-2.48,0-4.86-.97-6.62-2.71l-43.91-43.36c-3.6-3.55-3.63-9.35-.08-12.94,.03-.03,.05-.05,.08-.08l43.73-43.18c3.79-3.73,9.88-3.71,13.64,.04h0c3.77,3.78,3.76,9.9,0,13.69l-32.5,32.5c-2.11,2.11-2.11,5.53,0,7.65l32.32,32.32c3.68,3.67,3.69,9.64,.01,13.32-1.77,1.77-4.17,2.77-6.68,2.77h0Z"/><path class="e" d="M363.52,281.46c-5.2,0-9.42-4.2-9.43-9.4,0-2.51,.99-4.91,2.77-6.68l32.32-32.32c2.11-2.11,2.11-5.53,0-7.65l-32.5-32.5c-3.78-3.78-3.79-9.9-.01-13.68,0,0,0,0,.01,0h0c3.77-3.75,9.85-3.77,13.64-.04l43.73,43.18c3.6,3.55,3.63,9.35,.08,12.94-.03,.03-.05,.05-.08,.08l-43.91,43.36c-1.76,1.74-4.14,2.72-6.62,2.71Z"/></svg>